<svg width="208" height="76" viewBox="0 0 208 76" fill="none" xmlns="http://www.w3.org/2000/svg">
<path d="M21.6705 45.1364L16.6932 75H0.0227273L11.6136 5.18182H27.7386L23.3068 32.25H23.8864C25.5682 29.0227 27.9091 26.5 30.9091 24.6818C33.9091 22.8636 37.3864 21.9545 41.3409 21.9545C44.9773 21.9545 48.0227 22.7727 50.4773 24.4091C52.9318 26.0227 54.6705 28.3068 55.6932 31.2614C56.7159 34.2159 56.8977 37.6705 56.2386 41.625L50.6477 75H33.9773L39.0227 44.8977C39.4773 41.9886 39.1023 39.7159 37.8977 38.0795C36.6932 36.4432 34.7614 35.625 32.1023 35.625C30.3523 35.625 28.7386 36.0114 27.2614 36.7841C25.8068 37.5341 24.5909 38.6136 23.6136 40.0227C22.6364 41.4318 21.9886 43.1364 21.6705 45.1364ZM75.5767 75.8864C72.2585 75.8864 69.3949 75.3295 66.9858 74.2159C64.5994 73.0795 62.8494 71.3636 61.7358 69.0682C60.6449 66.7727 60.3835 63.9091 60.9517 60.4773C61.4517 57.5682 62.3722 55.125 63.7131 53.1477C65.0767 51.1477 66.7472 49.5227 68.7244 48.2727C70.7244 47.0227 72.9517 46.0682 75.4062 45.4091C77.8608 44.75 80.429 44.3068 83.1108 44.0795C86.1108 43.8068 88.5426 43.5114 90.4062 43.1932C92.2926 42.875 93.7017 42.4318 94.6335 41.8636C95.5653 41.2727 96.1335 40.4545 96.3381 39.4091V39.2386C96.6108 37.4886 96.2358 36.1364 95.2131 35.1818C94.1903 34.2273 92.6562 33.75 90.6108 33.75C88.429 33.75 86.5653 34.2273 85.0199 35.1818C83.4744 36.1364 82.3949 37.4545 81.7812 39.1364L66.5085 38.5909C67.4631 35.4091 69.0994 32.5682 71.4176 30.0682C73.7358 27.5455 76.679 25.5682 80.2472 24.1364C83.8381 22.6818 87.9858 21.9545 92.6903 21.9545C96.0085 21.9545 99.0085 22.3523 101.69 23.1477C104.372 23.9205 106.634 25.0568 108.474 26.5568C110.338 28.0341 111.668 29.8523 112.463 32.0114C113.259 34.1705 113.429 36.6364 112.974 39.4091L107.009 75H91.3267L92.554 67.7045H92.1449C90.9176 69.4773 89.4744 70.9773 87.8153 72.2045C86.179 73.4318 84.3381 74.3523 82.2926 74.9659C80.2472 75.5795 78.0085 75.8864 75.5767 75.8864ZM82.5994 64.9773C84.3494 64.9773 86.0085 64.6136 87.5767 63.8864C89.1449 63.1591 90.4631 62.1591 91.5312 60.8864C92.6222 59.5909 93.3153 58.0909 93.6108 56.3864L94.3949 51.4091C93.9176 51.6591 93.3153 51.8864 92.5881 52.0909C91.8608 52.2955 91.0881 52.4886 90.2699 52.6705C89.4517 52.8295 88.6108 52.9886 87.7472 53.1477C86.9063 53.2841 86.0994 53.4091 85.3267 53.5227C83.6903 53.7727 82.2699 54.1591 81.0653 54.6818C79.8608 55.2045 78.8949 55.8864 78.1676 56.7273C77.4631 57.5455 77.0313 58.5227 76.8722 59.6591C76.5994 61.3636 76.9972 62.6818 78.0653 63.6136C79.1335 64.5227 80.6449 64.9773 82.5994 64.9773ZM136.259 75.75C132.395 75.75 129.043 74.75 126.202 72.75C123.361 70.75 121.327 67.75 120.099 63.75C118.895 59.75 118.781 54.7841 119.759 48.8523C120.781 42.6932 122.599 37.625 125.213 33.6477C127.827 29.6705 130.872 26.7273 134.349 24.8182C137.849 22.9091 141.418 21.9545 145.054 21.9545C147.804 21.9545 150.077 22.4318 151.872 23.3864C153.69 24.3182 155.111 25.5227 156.134 27C157.156 28.4773 157.861 30.0114 158.247 31.6023H158.622L163.02 5.18182H179.69L168.099 75H151.599L152.997 66.5114H152.486C151.509 68.125 150.259 69.6364 148.736 71.0455C147.213 72.4545 145.406 73.5909 143.315 74.4545C141.247 75.3182 138.895 75.75 136.259 75.75ZM144.134 62.7614C146.156 62.7614 147.986 62.1932 149.622 61.0568C151.259 59.8977 152.634 58.2727 153.747 56.1818C154.884 54.0909 155.679 51.6364 156.134 48.8182C156.611 45.9545 156.634 43.4886 156.202 41.4205C155.77 39.3523 154.918 37.7614 153.645 36.6477C152.395 35.5341 150.747 34.9773 148.702 34.9773C146.656 34.9773 144.827 35.5455 143.213 36.6818C141.599 37.8182 140.259 39.4205 139.19 41.4886C138.122 43.5568 137.349 46 136.872 48.8182C136.418 51.6364 136.372 54.0909 136.736 56.1818C137.122 58.2727 137.929 59.8977 139.156 61.0568C140.406 62.1932 142.065 62.7614 144.134 62.7614ZM178.702 75L187.429 22.6364H204.099L195.372 75H178.702ZM196.94 16.5C194.577 16.5 192.656 15.7159 191.179 14.1477C189.702 12.5795 189.122 10.7045 189.44 8.52272C189.759 6.31818 190.872 4.44318 192.781 2.89772C194.69 1.35227 196.815 0.579546 199.156 0.579546C201.52 0.579546 203.418 1.35227 204.849 2.89772C206.304 4.44318 206.872 6.31818 206.554 8.52272C206.281 10.7045 205.19 12.5795 203.281 14.1477C201.395 15.7159 199.281 16.5 196.94 16.5Z" fill="white"/>
</svg>
