<svg width="177" height="75" viewBox="0 0 177 75" fill="none" xmlns="http://www.w3.org/2000/svg">
<path d="M4.09375 2.375L5.96875 2.28125C13.9688 2.59375 17.9688 3.3125 17.9688 4.4375L18.625 18.2188C18.625 19.4688 17.9375 22.625 16.5625 27.6875C16.25 29.6875 16.0938 31 16.0938 31.625V32.1875H16.375C20.5625 28.9375 25.3438 27.3125 30.7188 27.3125C32.2812 27.3125 35.1562 28.2188 39.3438 30.0312C40.1562 30.6562 41.1875 31.9375 42.4375 33.875C42.875 34.125 43.1562 34.5312 43.2812 35.0938L43.1875 36.0312C44.9375 37.4062 45.8125 39.875 45.8125 43.4375C46 43.4375 46.1562 46.5 46.2812 52.625V52.8125C46.2812 53.9375 45.7812 57.375 44.7812 63.125L44.4062 64.9062H46.375C48.4375 64.9688 49.4688 65.25 49.4688 65.75C49.4688 66 48.4688 66.2188 46.4688 66.4062C46.4688 66.6562 47.1875 66.9375 48.625 67.25L49 67.8125V68C47.8125 68.1875 47.2188 68.3438 47.2188 68.4688C48.4062 68.7188 49 69.125 49 69.6875C49 72.625 48.1562 74.0938 46.4688 74.0938L45.7188 74.1875C43.2812 74.1875 42.0625 73.8438 42.0625 73.1562C42.0625 72.9688 40.7812 72.8125 38.2188 72.6875C37.0938 72.0625 36.1875 71.6562 35.5 71.4688L35.4062 71.0938C35.4062 68.3438 35.8125 64.3438 36.625 59.0938C36.9375 56.0312 37.5 52.7812 38.3125 49.3438L38.125 46.0625L38.4062 45.5938C37.5938 44.9688 37.1875 44.0625 37.1875 42.875C36.4375 41.5625 35.8125 40.5312 35.3125 39.7812C33.125 38.8438 31.8125 38.375 31.375 38.375C28.1875 37.3125 25.0625 37.4375 22 38.75C17.9375 41.5 15.9062 43.5312 15.9062 44.8438L15.3438 50.9375L15.5312 57.2188C15.1562 61.8438 14.6875 64.1562 14.125 64.1562L14.0312 64.625L14.4062 64.7188H14.7812L16.375 64.0625C17.875 64.3125 18.625 64.8125 18.625 65.5625L17.9688 66.125V66.5C18.0312 66.6875 18.4375 66.9062 19.1875 67.1562L19.375 67.625C19 70.875 18.5312 72.5 17.9688 72.5H17.6875C16.875 71.9375 13.5312 71.5 7.65625 71.1875C3.46875 70.8125 1.375 70.1875 1.375 69.3125V67.8125C1.3125 67.5625 1.5 67.0938 1.9375 66.4062V65.8438C1.1875 64.7812 0.8125 64.1562 0.8125 63.9688C1.125 63.7188 2.625 63.5625 5.3125 63.5C5.75 63.5 6.0625 62.2812 6.25 59.8438C6.6875 59.5938 7.0625 58.625 7.375 56.9375C7.75 56.4375 7.9375 55.9062 7.9375 55.3438V55.25C7.9375 54.25 7.625 53.25 7 52.25L7.9375 50C8.375 50 8.625 43.1562 8.6875 29.4688L10 15.6875V11.5625C10 10.1875 9.5625 9.5 8.6875 9.5L5.59375 9.40625L3.625 9.96875C3.3125 9.96875 3.09375 9.125 2.96875 7.4375V6.5C2.96875 3.75 3.34375 2.375 4.09375 2.375ZM3.90625 69.125V69.3125H4.09375C4.90625 69.3125 6.4375 69.7188 8.6875 70.5312C12.125 70.5938 14.8438 70.8125 16.8438 71.1875H17.125L17.4062 70.8125V70.7188C17.4062 70.0938 14.4375 69.7812 8.5 69.7812C7.5 69.1562 6.25 68.8438 4.75 68.8438C4.1875 68.9062 3.90625 69 3.90625 69.125ZM42.7188 60.6875H43C43.4375 60.6875 44.0312 58.3438 44.7812 53.6562C44.7812 52.9688 44.5625 52.5312 44.125 52.3438H43.75C43.375 52.3438 43.0312 55.125 42.7188 60.6875ZM39.9062 41.1875L40.4688 39.6875C40.7188 40.1875 40.875 40.5625 40.9375 40.8125C41.1875 41.25 41.4375 41.4688 41.6875 41.4688V40.7188C41.6875 39.4688 40.8125 38 39.0625 36.3125L38.5938 36.2188H38.2188V36.5938C39.0938 37.4688 39.8125 38.4062 40.375 39.4062L39.5312 40.8125L39.9062 41.1875ZM12.0625 18.7812C11.875 19.1562 11.7812 20.2812 11.7812 22.1562C12.5312 22.1562 12.9062 22.7188 12.9062 23.8438H13C13.1875 23.4688 13.2812 22.8125 13.2812 21.875V20.6562H13.1875L12.8125 21.6875H12.4375L12.3438 21.125C12.4688 20.625 12.5938 20.375 12.7188 20.375L13.2812 20.5625C13.1562 20.1875 12.75 19.5937 12.0625 18.7812ZM7.28125 63.2188C7.28125 63.6562 8.3125 63.9688 10.375 64.1562H10.5625L10.8438 63.9688V63.2188C10.7188 63.0312 10.4688 62.9375 10.0938 62.9375H8.21875C7.59375 62.9375 7.28125 63.0312 7.28125 63.2188ZM37 68H37.1875L38.125 68.0938L41.0312 68L41.125 67.9062V67.8125C40.5 67.375 39.5 67.1562 38.125 67.1562C37.5625 67.1562 37.1875 67.4375 37 68ZM2.875 66.125V66.4062H3.53125H6.8125C6.8125 65.9062 5.84375 65.625 3.90625 65.5625C3.28125 65.5625 2.9375 65.75 2.875 66.125ZM29.5938 35.1875L28.9375 35.2812V35.75C30.3125 36.4375 31.1875 36.7812 31.5625 36.7812L31.9375 36.3125C31.9375 35.9375 31.1562 35.5625 29.5938 35.1875ZM6.15625 3.6875V3.96875C6.90625 4.53125 7.96875 4.8125 9.34375 4.8125L9.53125 4.4375C8.21875 3.9375 7.09375 3.6875 6.15625 3.6875ZM14.125 41.0938V41.8438H14.4062C15.0312 41.8438 15.4375 41.2812 15.625 40.1562L15.7188 40.0625V39.5938H15.625C15.1875 39.8438 14.6875 40.3438 14.125 41.0938ZM15.0625 4.15625L14.6875 4.625C14.875 4.9375 15.1562 5.1875 15.5312 5.375H15.625C16.0625 5.375 16.3438 5.21875 16.4688 4.90625V4.71875L16.0938 4.15625H15.0625ZM37.4688 70.3438H36.4375V70.625C36.5 71 36.9062 71.1875 37.6562 71.1875H38.5938V70.9062C38.5938 70.7188 38.2188 70.5312 37.4688 70.3438ZM15.7188 66.4062L15.5312 66.5V66.9688L16.0938 67.4375H16.5625L17.0312 67.0625V66.9688L16.375 66.4062H15.7188ZM8.03125 7.0625L7.5625 7.15625V7.34375C7.625 7.53125 7.84375 7.625 8.21875 7.625H8.96875L9.53125 7.4375V7.15625L8.96875 7.0625H8.03125ZM38.9688 64.7188V65.0938H39.7188L40 64.9062V64.4375L39.7188 64.1562C39.3438 64.1562 39.0938 64.3438 38.9688 64.7188ZM15.1562 42.7812L15.4375 43.0625H16.0938C16.4688 43.0625 16.6875 42.9688 16.75 42.7812L16.4688 42.5H16.0938C15.5938 42.5 15.2812 42.5938 15.1562 42.7812ZM36.625 30.4062V30.6875C36.875 31.125 37.3438 31.3438 38.0312 31.3438V31.0625C37.7812 30.625 37.3125 30.4062 36.625 30.4062ZM34.9375 37.5312V37.7188C34.9375 38.2812 35.25 38.5625 35.875 38.5625V38.4688C35.8125 37.8438 35.5 37.5312 34.9375 37.5312ZM13 13.1562L12.8125 13.4375V14.0938L13 14.375L13.375 14.0938V13.5312L13 13.1562ZM7.28125 5.5625H7V5.65625L7.09375 6.03125H8.3125V5.65625L7.28125 5.5625ZM18.8125 36.0312H19.0938C19.7812 35.5312 20.125 35.2188 20.125 35.0938H19.8438C19.2188 35.4062 18.875 35.7188 18.8125 36.0312ZM43.75 38.6562L43.4688 38.9375V39.125L44.0312 39.5H44.2188L44.4062 39.3125L43.9375 38.6562H43.75ZM31.6562 28.3438H31.5625V28.4375C31.5625 28.625 31.9688 28.8125 32.7812 29V28.9062C32.7812 28.5938 32.4062 28.4062 31.6562 28.3438ZM12.9062 15.9688L12.7188 16.25V16.5312L13 16.8125L13.375 16.7188V16.4375L13 15.9688H12.9062ZM27.1562 33.4062H26.5V33.5938L26.7812 33.875H27.4375V33.6875L27.1562 33.4062ZM22.8438 37.7188L22.4688 38.0938V38.375H22.75L23.125 38V37.7188H22.8438ZM37.1875 69.0312L36.9062 69.3125V69.4062L37.1875 69.6875H37.375L37.4688 69.3125L37.1875 69.0312ZM4.75 4.90625H4.65625V5.65625H4.75L5.03125 5.375V5.09375L4.75 4.90625ZM44.4062 50.75L44.125 50.9375L44.4062 51.2188H44.5938V50.9375L44.4062 50.75ZM16.4688 65.2812H16.0938V65.5625H16.4688V65.2812ZM27.9062 36.2188L27.7188 36.4062H28.0938V36.2188H27.9062ZM40.5625 39.4062L40.4688 39.5938C40.3438 39.5938 40.3438 39.5312 40.4688 39.4062L40.5625 39.3125V39.4062ZM63.5312 20.1875L75.1562 19.9062C76.1562 19.9062 78.25 20.3437 81.4375 21.2188C85.0625 24.6562 87.2188 27.3438 87.9062 29.2812C89.2812 30.7188 90.375 33.5625 91.1875 37.8125C92.1875 38.8125 92.6875 41.0312 92.6875 44.4688L92.7812 46.8125L92.4062 56.0938C92.4062 57.9688 93.5625 60.2812 95.875 63.0312C98 65.0938 99.375 66.125 100 66.125V66.3125C100 67.0625 98.9062 68.25 96.7188 69.875C95.0938 71.5 94.0625 72.3125 93.625 72.3125H93.5312C92.5312 72.1875 90 70.3438 85.9375 66.7812C78.5625 69.6562 74.8438 71.125 74.7812 71.1875C72.3438 71.9375 69.625 72.3125 66.625 72.3125H66.1562C62.7812 71.75 59.9062 70.4375 57.5312 68.375C57.0938 68 56.1875 66.4375 54.8125 63.6875C53.6875 62.3125 53.125 60.625 53.125 58.625V55.9062C53.125 54.1562 53.5938 52.5312 54.5312 51.0312C55.3438 48.4688 56.75 46.0312 58.75 43.7188C59.75 42.5312 60.75 41.7812 61.75 41.4688C65 39.7188 68.2188 38.8438 71.4062 38.8438L75.625 38.75H76.1875C78.5625 38.75 80.25 39.0938 81.25 39.7812H81.8125C82.125 39.7812 82.2812 39.6562 82.2812 39.4062C81.5938 36.4688 80.4688 33.6562 78.9062 30.9688C77.5312 28.6562 74.9688 27.5 71.2188 27.5L67.375 26.9375C64.0625 27.625 62.4062 28.3125 62.4062 29C61.0938 30.6875 60.3125 32.7812 60.0625 35.2812C59.9375 35.5938 58.8125 35.75 56.6875 35.75L56.125 35.9375C55.875 35.9375 55.5625 36.4688 55.1875 37.5312C53.4375 37.2812 52.5625 36.9062 52.5625 36.4062C52.6875 36.0312 52.9062 33.7812 53.2188 29.6562C54.2188 26.7812 56.5938 24.125 60.3438 21.6875C62.0938 20.6875 63.1562 20.1875 63.5312 20.1875ZM74.0312 21.7812L73.8438 22.0625L74.125 22.4375H74.6875L74.7812 22.25L74.5 21.7812H74.0312ZM81.1562 22.5312H80.9688V22.7188C81.4688 23.2188 81.9062 23.4688 82.2812 23.4688H82.375V23.2812C81.875 22.7812 81.4688 22.5312 81.1562 22.5312ZM66.1562 23V23.2812C66.2188 23.4688 66.5312 23.5625 67.0938 23.5625C67.6562 23.5625 68.4375 23.375 69.4375 23V22.625H69.0625C67.6875 22.625 66.7188 22.75 66.1562 23ZM57.7188 26V26.1875H57.8125C58.375 26.1875 59.2188 25.5938 60.3438 24.4062V24.125H60.25C59.625 24.125 58.7812 24.75 57.7188 26ZM70.75 25.3438L70.2812 25.7188L70.5625 26.1875H71.7812L72.0625 25.9062L71.5 25.3438H70.75ZM56.9688 32.9375L56.6875 33.125V34.5312H56.7812C57.0312 34.4688 57.1562 34.25 57.1562 33.875V33.125L56.9688 32.9375ZM91 40.4375H90.9062V40.625C91.0312 41.125 91.1562 41.375 91.2812 41.375L91.375 40.9062C91.25 40.5938 91.125 40.4375 91 40.4375ZM88.8438 43.7188L88.5625 43.9062V44.1875C88.8125 45.125 89.0625 45.5938 89.3125 45.5938H89.5C89.5 44.7812 89.3125 44.1562 88.9375 43.7188H88.8438ZM61.375 44.2812L60.3438 44.75V45.2188H60.5312C60.9688 45.2188 61.2812 44.9688 61.4688 44.4688V44.2812H61.375ZM60.3438 53.1875C60.7812 56.9375 61.3125 58.8125 61.9375 58.8125L62.875 60.0312V60.125L62.0312 60.0312V60.3125C63.2188 61.9375 65.6562 63.4375 69.3438 64.8125C69.7812 65.0625 70.4062 65.25 71.2188 65.375C72.3438 65.375 76.6562 63.5312 84.1562 59.8438C84.6562 59.5312 84.9062 59.1875 84.9062 58.8125V58.3438C84.3438 55.7812 83.875 52.7812 83.5 49.3438L83.3125 49.25C83.3125 48.5625 82.625 48 81.25 47.5625C76.625 46.25 73.4688 45.5938 71.7812 45.5938C67.0312 46.6562 63.7812 48.25 62.0312 50.375C60.9062 51.5 60.3438 52.4375 60.3438 53.1875ZM88.5625 47.0938L88.2812 46.9062V47.1875H88.5625V47.0938ZM88.9375 48.875H88.375V49.25L88.6562 49.5312L88.9375 49.25V48.875ZM85.9375 51.2188L85.6562 51.5L85.9375 51.875L86.3125 51.7812V51.5L86.0312 51.2188H85.9375ZM89.3125 51.5H89.0312V51.5938C89.1562 53.9688 89.4062 55.1562 89.7812 55.1562L89.9688 54.9688V54.7812C89.9688 53.4688 89.75 52.375 89.3125 51.5ZM85.6562 54.5L85.5625 54.5938V55.1562L85.8438 55.5312H85.9375L86.3125 55.1562V54.5938L86.0312 54.5H85.6562ZM93.625 63.3125H93.3438V63.875C93.5938 64.6875 93.875 65.0938 94.1875 65.0938H94.4688V64.8125C94.2188 63.8125 93.9375 63.3125 93.625 63.3125ZM59.125 63.5938L58.9375 63.7812V63.875L59.125 64.0625H59.5938V63.875L59.3125 63.5938H59.125ZM90.7188 64.8125L90.4375 65.0938C90.625 65.5312 90.875 65.8125 91.1875 65.9375H91.2812L91.6562 65.5625V65.375L91.1875 64.8125H90.7188ZM77.125 66.125V66.3125H77.5C78.375 66.3125 79.5312 65.9375 80.9688 65.1875V65.0938H80.5938C78.4688 65.3438 77.3125 65.6875 77.125 66.125ZM92.7812 66.4062L92.5938 66.7812V66.9688L92.9688 67.3438H93.3438L93.625 67.1562V66.9688L93.1562 66.4062H92.7812ZM69.625 67.1562L69.3438 67.4375C69.4688 67.75 69.7188 67.9062 70.0938 67.9062C70.7812 67.7812 71.125 67.625 71.125 67.4375V67.3438L70.8438 67.1562H69.625ZM59.4062 68.4688L59.125 68.8438C59.375 69.4062 60.9375 70.125 63.8125 71C64.75 71.4375 66 71.6562 67.5625 71.6562V71.5625C67.5625 71.375 66.375 71.0312 64 70.5312C62.625 70.1562 61.1875 69.4688 59.6875 68.4688H59.4062ZM138.344 0.3125L142.469 0.21875C145.031 0.71875 146.312 1.09375 146.312 1.34375C146.438 1.34375 146.562 2.25 146.688 4.0625C147.375 4.875 147.719 5.40625 147.719 5.65625C147.406 8.65625 147.125 14.7813 146.875 24.0312C146.75 24.0312 146.688 24.3438 146.688 24.9688C146.188 25.2812 145.938 25.625 145.938 26V27.5C145.938 28.75 145.625 30.1875 145 31.8125L144.906 33.125C144.906 33.375 145.25 33.5625 145.938 33.6875V34.3438C145 42.2812 144.531 47.4688 144.531 49.9062C144.531 52.7812 144.344 54.2188 143.969 54.2188V54.4062C144.344 54.4062 144.562 54.8125 144.625 55.625L144.531 56.2812V56.6562C144.531 57.8438 144.156 60.7188 143.406 65.2812V67.4375C146.531 68.125 148.094 69.0312 148.094 70.1562L147.625 70.625V71.4688L148.094 72.2188C147.594 73.5312 145.812 74.1875 142.75 74.1875H142.188L141.719 73.4375H140.688L138.156 74L134.594 73.9062C134.344 73.9062 134.062 72.3125 133.75 69.125L133.938 66.125C133.125 66.125 131.844 66.8125 130.094 68.1875C124.906 71.0625 120.344 72.625 116.406 72.875C112.781 71.9375 109.531 70.125 106.656 67.4375C105.719 66.5 104.75 65.0312 103.75 63.0312C102.625 61.4688 102.062 60.5312 102.062 60.2188V59.8438H102.344C102.781 60.1562 103.594 61.2188 104.781 63.0312L105.25 63.125L105.344 63.0312V61.8125C105.344 60.5625 104.688 59.0625 103.375 57.3125H102.906C102.531 57.3125 102.312 57.875 102.25 59H101.969L101.781 58.5312C101.906 56.0938 102 54.5 102.062 53.75H102.625L102.719 54.5938H102.906C103.219 54.4688 103.375 54.1562 103.375 53.6562V51.875L103.188 51.5938C103 51.5938 102.906 51.8438 102.906 52.3438L102.344 52.9062C102.219 52.9062 102.125 52.6875 102.062 52.25C102.062 47.5625 103.594 42.5625 106.656 37.25C108.094 34.75 109.531 32.75 110.969 31.25C112.969 29.4375 116.125 28.5312 120.438 28.5312H121.281C127.906 28.5312 133.312 30.25 137.5 33.6875L138.156 34.0625H138.438C139 31.3125 139.562 24.3438 140.125 13.1562C140.438 12.6562 140.688 12.4062 140.875 12.4062C138.875 11.0938 137.5 10.4375 136.75 10.4375C136.188 10.4375 135.844 8.28125 135.719 3.96875C135.844 3.84375 136.344 3.75 137.219 3.6875V3.3125C137.156 3.0625 136.906 2.9375 136.469 2.9375C136.156 2.75 136 2.53125 136 2.28125C136 1.65625 136.719 1.34375 138.156 1.34375V0.96875L137.781 0.59375V0.40625L138.344 0.3125ZM138.438 4.34375L138.344 4.625V4.71875H139.469V4.625L139.188 4.34375H138.438ZM143.688 5.28125L143.5 5.5625V5.65625H144.906V5.375L144.25 5.28125H143.688ZM140.781 7.0625L140.969 7.34375C142.469 7.28125 143.219 7.09375 143.219 6.78125L142.844 6.5H141.719C141.281 6.5 140.969 6.6875 140.781 7.0625ZM138.344 6.6875L138.156 6.96875V7.15625L138.812 7.34375C139.188 7.34375 139.406 7.21875 139.469 6.96875L139.188 6.6875H138.344ZM117.531 30.9688L117.25 31.3438V31.8125L117.531 32H118L118.469 31.625V31.3438L118.094 30.9688H117.531ZM123.062 32L123.25 32.375H127.375V32C127 31.625 125.969 31.4062 124.281 31.3438H123.344C123.156 31.4062 123.062 31.625 123.062 32ZM145.469 31.8125V31.3438H145.938V31.8125H145.469ZM111.156 33.875V34.25L111.344 34.3438H111.719C113.906 33.7812 115 33.125 115 32.375C114.938 32.125 114.625 32 114.062 32H113.594C112.656 32 111.844 32.625 111.156 33.875ZM131.312 32.9375L130 33.0312H129.812V33.3125C131.312 33.9375 132.281 34.25 132.719 34.25H132.812C132.812 33.625 132.312 33.1875 131.312 32.9375ZM140.406 33.4062H140.031C140.031 34.0312 140.156 34.3438 140.406 34.3438L140.5 34.25V33.9688L140.406 33.4062ZM120.625 35.0938L120.438 35.2812L120.625 35.375H121L121.281 35.1875V35.0938H120.625ZM107.031 41.6562V41.9375H107.312C107.688 41.8125 108.094 41.0938 108.531 39.7812C110.406 37.1562 111.656 35.8438 112.281 35.8438L112.656 35.1875H112.094C111.844 35.1875 110.812 35.8125 109 37.0625C107.812 38.8125 107.156 40.3438 107.031 41.6562ZM117.531 35.75L117.344 36.0312H118.281L118.562 35.8438V35.75H117.531ZM122.406 36.2188L122.594 36.3125H122.781L124.844 36.0312V35.8438L124.188 35.75C123 35.8125 122.406 35.9688 122.406 36.2188ZM127.375 35.75L127.188 36.0312L127.469 36.3125H128.031L128.219 36.0312C128.094 35.8438 127.844 35.75 127.469 35.75H127.375ZM131.688 35.8438H131.312L131.688 36.2188L131.875 36.0312L131.688 35.8438ZM133.75 36.4062H132.719C132.719 36.6562 133.625 37.0312 135.438 37.5312H135.531V37.25C135.031 36.6875 134.438 36.4062 133.75 36.4062ZM107.594 54.6875V56.0938C107.594 56.9688 108.781 59.5 111.156 63.6875C112.906 64.625 114.781 65.0938 116.781 65.0938C121.094 65.0938 125.281 64.0625 129.344 62C131.031 59.4375 132.5 58.1562 133.75 58.1562C134.438 57.4688 135.188 55.125 136 51.125C136.5 50 136.75 48.8438 136.75 47.6562V46.7188C136.75 44.0938 136.406 42.7812 135.719 42.7812C134.281 41.4688 133.562 40.6875 133.562 40.4375L133.938 39.875C133.938 39.625 133.031 39.25 131.219 38.75L130.656 38.375L130.75 38.1875H132.156V38.0938C132.156 37.4688 128.75 37.125 121.938 37.0625L120.625 36.7812C115.625 37.2812 113.125 37.9375 113.125 38.75C110.812 41.5 109.312 44.875 108.625 48.875C107.938 51.25 107.594 53.1875 107.594 54.6875ZM134.969 39.875L134.594 40.25V41L135.062 41.4688H135.344C135.594 41.4062 135.719 41.1562 135.719 40.7188C135.719 40.3438 135.531 40.0625 135.156 39.875H134.969ZM106.094 50C106.094 50.1875 106.188 50.2812 106.375 50.2812C106.812 50.2812 107.125 49.6562 107.312 48.4062V47.8438H107.031C106.719 47.8438 106.406 48.5625 106.094 50ZM135.906 64.1562V64.7188C136.281 64.7188 136.469 65 136.469 65.5625H136.656L137.125 65.0938V64.3438C136.875 64.1562 136.75 63.8438 136.75 63.4062H136.469C136.094 63.4688 135.906 63.7188 135.906 64.1562ZM128.875 64.9062V65.2812H128.969C129.594 65.0312 130.094 64.625 130.469 64.0625V63.875L130.281 63.6875H130.094C129.656 63.875 129.25 64.2812 128.875 64.9062ZM119.5 66.125V66.4062H120.625C124.75 66.1562 127.031 65.5625 127.469 64.625V64.3438H127.188C122.375 65.1562 119.812 65.75 119.5 66.125ZM140.969 64.7188H140.875L140.781 65.4688V66.6875L140.969 66.9688H141.156L141.344 66.6875V65.75C141.344 65.125 141.219 64.7812 140.969 64.7188ZM107.781 65.5625H107.406V65.8438C107.406 66.2188 108.438 66.5 110.5 66.6875V66.4062C109.062 65.8438 108.156 65.5625 107.781 65.5625ZM109.938 67.0625L109.656 67.25C109.656 67.9375 111.5 68.625 115.188 69.3125H115.656L115.844 69.125V69.0312C115.844 68.3438 114.062 67.6875 110.5 67.0625H109.938ZM136.469 67.4375L136 67.8125V68H136.281L136.656 67.625V67.4375H136.469ZM121.844 68.1875V68.375L122.125 68.5625H122.688C124.688 68.4375 125.688 68.25 125.688 68L125.406 67.8125H123.625C122.438 67.8125 121.844 67.9375 121.844 68.1875ZM141.625 68.0938H141.156V68.375L141.344 68.5625H141.812V68.375L141.625 68.0938ZM115.562 70.9062V71.1875L115.656 71.4688H116.875C117.875 71.4688 119.344 71.25 121.281 70.8125V70.625L118.562 70.3438C116.562 70.4688 115.562 70.6562 115.562 70.9062ZM143.125 71.0938C143.188 71.3438 143.5 71.4688 144.062 71.4688H145.938L146.594 71.2812V71.0938C146.594 70.9062 146.219 70.75 145.469 70.625C143.906 70.6875 143.125 70.8438 143.125 71.0938ZM163.656 4.8125L166.844 4.34375C169.031 4.34375 170.75 5.46875 172 7.71875L172.656 10.7188C172.531 11.9062 171.844 13.4688 170.594 15.4062C169.781 16.2187 168.531 16.625 166.844 16.625C162.906 16.625 160.469 16.0312 159.531 14.8438C158.594 13.5937 158.156 11.8438 158.219 9.59375C157.969 9.59375 157.844 9.53125 157.844 9.40625V9.21875C159.719 6.28125 161.656 4.8125 163.656 4.8125ZM161.781 7.15625V7.25C163.906 7 164.969 6.71875 164.969 6.40625L164.5 6.21875C162.688 6.53125 161.781 6.84375 161.781 7.15625ZM163.375 9.875H163.469L164.031 9.96875H164.219C164.906 9.96875 165.344 9.71875 165.531 9.21875L165.438 9.03125H164.312C163.812 9.03125 163.5 9.3125 163.375 9.875ZM170.125 9.03125L169.844 9.5V9.875H169.938L170.219 9.5V9.03125H170.125ZM167.875 12.125V12.4062H168.25C168.688 12.4062 169.031 12.1875 169.281 11.75V11.4688H169.094C168.656 11.4688 168.25 11.6875 167.875 12.125ZM165.812 13.8125L165.531 14.0938V14.2812H167.219L167.5 14.0938L167.219 13.8125H165.812ZM153.906 22.7188H154.188C154.688 23.1562 155.312 23.375 156.062 23.375L157.281 22.8125C165.781 22.8125 170.031 23.0625 170.031 23.5625L170.125 24.2188V25.8125C170.688 27.0625 170.969 28.25 170.969 29.375V30.875C170.219 41.0625 169.719 49.3125 169.469 55.625C169.344 56 169.219 56.6562 169.094 57.5938C169.156 57.8438 169.438 57.9688 169.938 57.9688H170.219C173.594 57.9688 175.281 58.375 175.281 59.1875L175.188 59.375V59.9375C175.938 61.4375 176.312 63.8125 176.312 67.0625L176.688 70.8125L176.406 71L172.281 71.1875H162.906C155.906 71.1875 152.406 70.625 152.406 69.5C152.406 68.8125 152.219 68.125 151.844 67.4375C152.031 67 152.344 66.6562 152.781 66.4062H153.062C153.312 66.6562 153.594 66.7812 153.906 66.7812H154.094C155.906 66.7812 158.062 66.625 160.562 66.3125V66.125C155.188 65.75 152.5 65.3125 152.5 64.8125L152.406 64.0625V63.0312L152.219 60.5938C152.219 59.9688 154.562 59.6562 159.25 59.6562C159.875 59.6562 160.188 58.25 160.188 55.4375L161.312 30.7812H161.125C159.375 30.7812 158.5 30.6562 158.5 30.4062C158.5 30.3438 158.594 30.25 158.781 30.125C155.031 30.125 153.156 29.6875 153.156 28.8125C152.906 28.75 152.781 28.5 152.781 28.0625L153.25 26.9375C153.25 26.6875 153.062 26.3438 152.688 25.9062C153.188 25.4062 153.531 24.4062 153.719 22.9062L153.906 22.7188ZM155.406 24.5938V24.9688H155.875C157.5 24.9688 158.312 24.8438 158.312 24.5938L158.125 24.2188H157.844C156.219 24.2188 155.406 24.3438 155.406 24.5938ZM168.156 23.9375L167.875 24.2188L168.25 24.5H168.438V24.2188L168.156 23.9375ZM157.469 25.9062H155.781V26.1875C155.781 26.4375 156.219 26.5625 157.094 26.5625H158.125H158.406H161.5C162.438 26.5625 162.906 26.4062 162.906 26.0938V26C162.906 25.6875 161.094 25.6562 157.469 25.9062ZM165.812 26L164.969 25.9062V26.0938C165.406 26.0938 165.938 26.4062 166.562 27.0312H166.75C166.875 27.0312 166.938 26.9375 166.938 26.75H167.125C167.375 26.75 167.531 27.0312 167.594 27.5938H167.781L169.094 26.6562V26.0938L167.125 26H165.812ZM165.438 31.25L165.906 32.6562L165.25 34.3438C165.5 34.9062 165.719 35.1875 165.906 35.1875H166L166.188 34.625V34.0625C166.188 31.8125 166.531 30.6875 167.219 30.6875L167.5 30.3125V29.9375L167.219 29.6562H166.656C165.844 29.6562 165.438 30.1875 165.438 31.25ZM162.531 40.1562L162.25 52.25C162.312 52.6875 162.406 52.9062 162.531 52.9062C162.719 52.9062 162.844 52.625 162.906 52.0625L162.812 50.6562C163.125 50.3438 163.469 49.0938 163.844 46.9062V46.3438L163.656 45.0312C164.031 44.7188 164.219 44.5 164.219 44.375C163.969 43.6875 163.844 43 163.844 42.3125V42.125C164.094 42.125 164.406 38.625 164.781 31.625C164.594 31.125 164.406 30.875 164.219 30.875C163.281 30.875 162.719 33.9688 162.531 40.1562ZM167.125 31.9062L166.75 32V32.5625C166.75 32.9375 166.906 33.2188 167.219 33.4062H167.5L167.781 33.0312V32.5625C167.656 32.25 167.438 32.0312 167.125 31.9062ZM166.656 47.1875H166.188C165.688 49.5 165.438 51.2188 165.438 52.3438H165.531C165.844 52.3438 166.25 51.0625 166.75 48.5V47.8438L166.656 47.1875ZM164.875 56V56.6562H165.062C165.375 56.5312 165.531 56.1562 165.531 55.5312V54.875H165.25C165.125 54.875 165 55.25 164.875 56ZM165.062 57.4062L164.781 57.7812V58.25H165.062L165.438 57.9688V57.6875L165.156 57.4062H165.062ZM172.562 59.6562L172.281 59.75C172.656 60.0625 173.344 60.25 174.344 60.3125V60.0312C174.344 59.7812 173.938 59.6562 173.125 59.6562H172.562ZM172.938 63.5938L171.812 63.875C171.938 64.625 172.5 65 173.5 65H173.781V64.7188L173.594 64.4375C173.594 64.375 173.844 64.1875 174.344 63.875V63.4062C174.344 62.9688 174.219 62.7188 173.969 62.6562H173.594C173.406 62.7188 173.188 63.0312 172.938 63.5938ZM155.031 62.75L154.375 62.9375V63.0312C154.875 63.5312 156.812 63.8125 160.188 63.875H160.844C161.344 63.875 161.656 63.7188 161.781 63.4062V63.2188C159.156 62.9062 156.906 62.75 155.031 62.75ZM163.844 63.875L164.219 64.3438C164.781 64.3438 165.062 64.0312 165.062 63.4062H164.594C164.219 63.4062 163.969 63.5625 163.844 63.875ZM172.656 65.75L172.375 66.125V66.3125H172.562L172.844 65.9375V65.75H172.656ZM165.438 66.3125L164.219 66.4062H162.906V66.7812L164.219 66.875L166.938 66.6875V66.4062H166.562L165.438 66.3125ZM175 69.5L174.625 69.7812V70.0625H175.188L175.281 69.7812L175.188 69.5H175Z" fill="white"/>
</svg>
