<svg width="177" height="75" fill="none" xmlns="http://www.w3.org/2000/svg"><path d="M4.094 2.375l1.875-.094c8 .313 12 1.031 12 2.156l.656 13.782c0 1.25-.688 4.406-2.063 9.468-.312 2-.468 3.313-.468 3.938v.563h.281c4.188-3.25 8.969-4.876 14.344-4.876 1.562 0 4.437.907 8.625 2.72.812.624 1.843 1.905 3.093 3.843.438.25.72.656.844 1.219l-.093.937c1.75 1.375 2.624 3.844 2.624 7.407.188 0 .344 3.062.47 9.187v.188c0 1.124-.5 4.562-1.5 10.312l-.376 1.781h1.969c2.063.063 3.094.344 3.094.844 0 .25-1 .469-3 .656 0 .25.718.531 2.156.844l.375.563V68c-1.188.188-1.781.344-1.781.469 1.187.25 1.781.656 1.781 1.219 0 2.937-.844 4.406-2.531 4.406l-.75.094c-2.438 0-3.657-.344-3.657-1.032 0-.187-1.28-.344-3.843-.469-1.125-.624-2.032-1.03-2.719-1.218l-.094-.375c0-2.75.407-6.75 1.219-12 .313-3.063.875-6.313 1.688-9.75l-.188-3.282.281-.468c-.812-.625-1.218-1.532-1.218-2.719-.75-1.313-1.376-2.344-1.876-3.094-2.187-.937-3.5-1.406-3.937-1.406-3.188-1.063-6.313-.938-9.375.375-4.063 2.75-6.094 4.781-6.094 6.094l-.562 6.093.187 6.282c-.375 4.625-.844 6.937-1.406 6.937l-.094.469.375.094h.375l1.594-.656c1.5.25 2.25.75 2.25 1.5l-.656.562v.375c.062.188.468.406 1.218.656l.188.469c-.375 3.25-.844 4.875-1.406 4.875h-.282c-.812-.563-4.156-1-10.03-1.313-4.188-.374-6.282-1-6.282-1.874v-1.5c-.063-.25.125-.72.563-1.407v-.562C1.188 64.78.813 64.156.813 63.969c.312-.25 1.812-.407 4.5-.469.437 0 .75-1.219.937-3.656.438-.25.813-1.219 1.125-2.907.375-.5.563-1.03.563-1.593v-.094c0-1-.313-2-.938-3L7.938 50c.437 0 .687-6.844.75-20.531L10 15.687v-4.124C10 10.187 9.562 9.5 8.687 9.5l-3.093-.094-1.969.563c-.313 0-.531-.844-.656-2.531V6.5c0-2.75.375-4.125 1.125-4.125zm-.188 66.75v.188h.188c.812 0 2.343.406 4.593 1.218 3.438.063 6.157.281 8.157.656h.281l.281-.374v-.094c0-.625-2.968-.938-8.906-.938-1-.625-2.25-.937-3.75-.937-.563.062-.844.156-.844.281zm38.813-8.438H43c.438 0 1.031-2.343 1.781-7.03 0-.688-.218-1.126-.656-1.313h-.375c-.375 0-.719 2.781-1.031 8.343zm-2.813-19.5l.563-1.5c.25.5.406.876.468 1.126.25.437.5.656.75.656v-.75c0-1.25-.874-2.719-2.624-4.407l-.47-.093h-.374v.375a12.974 12.974 0 012.156 2.812l-.844 1.407.375.374zM12.063 18.782c-.188.375-.282 1.5-.282 3.375.75 0 1.125.563 1.125 1.688H13c.188-.375.281-1.032.281-1.969v-1.219h-.094l-.374 1.032h-.376l-.093-.563c.125-.5.25-.75.375-.75l.562.188c-.125-.375-.531-.97-1.219-1.782zM7.28 63.22c0 .437 1.032.75 3.094.937h.188l.28-.187v-.75c-.124-.188-.374-.282-.75-.282H8.22c-.625 0-.938.094-.938.282zM37 68h.188l.937.094L41.031 68l.094-.094v-.094c-.625-.437-1.625-.656-3-.656-.563 0-.938.281-1.125.844zM2.875 66.125v.281H6.812c0-.5-.968-.781-2.906-.844-.625 0-.969.188-1.031.563zm26.719-30.938l-.657.094v.469c1.375.688 2.25 1.031 2.625 1.031l.375-.468c0-.376-.78-.75-2.343-1.126zM6.156 3.688v.282c.75.562 1.813.844 3.188.844l.187-.375c-1.312-.5-2.437-.75-3.375-.75zm7.969 37.407v.75h.281c.625 0 1.031-.563 1.219-1.688l.094-.093v-.47h-.094c-.438.25-.938.75-1.5 1.5zm.938-36.938l-.376.469c.188.313.47.563.844.75h.094c.438 0 .719-.156.844-.469V4.72l-.375-.563h-1.032zm22.406 66.188h-1.032v.281c.063.375.47.563 1.22.563h.937v-.282c0-.187-.375-.375-1.125-.562zm-21.75-3.938l-.188.094v.469l.563.469h.468l.47-.376v-.093l-.657-.563h-.656zM8.03 7.062l-.469.094v.188c.063.187.282.281.657.281h.75l.562-.188v-.28l-.562-.095H8.03zM38.97 64.72v.375h.75l.281-.188v-.469l-.281-.28c-.375 0-.625.187-.75.562zM15.156 42.78l.281.282h.657c.375 0 .593-.094.656-.282l-.281-.281h-.375c-.5 0-.813.094-.938.281zm21.469-12.375v.282c.25.437.719.656 1.406.656v-.282c-.25-.437-.718-.656-1.406-.656zm-1.688 7.125v.188c0 .562.313.843.938.843v-.093c-.063-.625-.375-.938-.938-.938zM13 13.156l-.188.281v.657l.188.281.375-.281v-.563L13 13.156zM7.281 5.562H7v.094l.094.375h1.218v-.375l-1.03-.093zm11.532 30.47h.28c.688-.5 1.032-.813 1.032-.938h-.281c-.625.312-.969.625-1.032.937zm24.937 2.624l-.281.282v.187l.562.375h.188l.187-.188-.468-.656h-.188zM31.656 28.344h-.093v.093c0 .188.406.375 1.218.563v-.094c0-.312-.375-.5-1.125-.562zm-18.75-12.375l-.187.281v.281l.281.282.375-.094v-.282L13 15.97h-.094zm14.25 17.437H26.5v.188l.281.281h.657v-.188l-.282-.28zm-4.312 4.313l-.375.375v.281h.281l.375-.375v-.281h-.281zM37.187 69.03l-.28.281v.094l.28.281h.188l.094-.374-.282-.282zM4.75 4.906h-.094v.75h.094l.281-.281v-.281l-.281-.188zM44.406 50.75l-.281.188.281.28h.188v-.28l-.188-.188zM16.47 65.281h-.375v.281h.375v-.28zM27.906 36.22l-.187.187h.375v-.187h-.188zm12.657 3.187l-.094.188c-.125 0-.125-.063 0-.188l.093-.093v.093zM63.53 20.188l11.625-.282c1 0 3.094.438 6.281 1.313 3.626 3.437 5.782 6.125 6.47 8.062 1.374 1.438 2.468 4.282 3.28 8.532 1 1 1.5 3.218 1.5 6.656l.094 2.343-.375 9.282c0 1.875 1.156 4.187 3.469 6.937 2.125 2.063 3.5 3.094 4.125 3.094v.188c0 .75-1.094 1.937-3.281 3.562-1.625 1.625-2.656 2.438-3.094 2.438h-.094c-1-.126-3.531-1.97-7.594-5.532-7.374 2.875-11.093 4.344-11.156 4.406-2.437.75-5.156 1.126-8.156 1.126h-.469c-3.375-.563-6.25-1.876-8.625-3.938-.437-.375-1.343-1.938-2.718-4.688-1.126-1.374-1.688-3.062-1.688-5.062v-2.719c0-1.75.469-3.375 1.406-4.875.813-2.562 2.219-5 4.219-7.312 1-1.188 2-1.938 3-2.25 3.25-1.75 6.469-2.625 9.656-2.625l4.219-.094h.563c2.374 0 4.062.344 5.062 1.031h.563c.312 0 .468-.125.468-.375a30.57 30.57 0 00-3.375-8.437C77.531 28.656 74.97 27.5 71.22 27.5l-3.844-.563c-3.313.688-4.969 1.375-4.969 2.063-1.312 1.688-2.093 3.781-2.343 6.281-.126.313-1.25.469-3.376.469l-.562.188c-.25 0-.563.53-.938 1.593-1.75-.25-2.624-.625-2.624-1.125.124-.375.343-2.625.656-6.75 1-2.875 3.375-5.531 7.125-7.968 1.75-1 2.812-1.5 3.187-1.5zm10.5 1.593l-.187.282.281.375h.563l.093-.188-.281-.469h-.469zm7.125.75h-.187v.188c.5.5.937.75 1.312.75h.094v-.188c-.5-.5-.906-.75-1.219-.75zm-15 .469v.281c.063.188.375.282.938.282.562 0 1.344-.188 2.344-.563v-.375h-.376c-1.374 0-2.343.125-2.906.375zm-8.437 3v.188h.093c.563 0 1.407-.594 2.532-1.782v-.281h-.094c-.625 0-1.469.625-2.531 1.875zm13.031-.656l-.469.375.281.468h1.22l.28-.28-.562-.563h-.75zm-13.781 7.593l-.282.188v1.406h.094c.25-.062.375-.281.375-.656v-.75l-.187-.188zM91 40.438h-.094v.188c.125.5.25.75.375.75l.094-.469c-.125-.312-.25-.468-.375-.468zm-2.156 3.282l-.281.187v.282c.25.937.5 1.406.75 1.406h.187c0-.813-.188-1.438-.563-1.875h-.093zm-27.469.562l-1.031.469v.469h.187c.438 0 .75-.25.938-.75v-.188h-.094zm-1.031 8.907c.437 3.75.968 5.624 1.593 5.624l.938 1.22v.093l-.844-.094v.282c1.188 1.624 3.625 3.124 7.313 4.5.437.25 1.062.437 1.875.562 1.125 0 5.437-1.844 12.937-5.531.5-.313.75-.657.75-1.032v-.468c-.562-2.563-1.031-5.563-1.406-9l-.188-.094c0-.688-.687-1.25-2.062-1.688-4.625-1.312-7.781-1.968-9.469-1.968-4.75 1.062-8 2.656-9.75 4.781-1.125 1.125-1.687 2.063-1.687 2.813zm28.218-6.094l-.28-.188v.282h.28v-.094zm.376 1.781h-.563v.375l.281.281.281-.281v-.375zm-3 2.344l-.282.281.281.375.376-.094V51.5l-.282-.281h-.094zm3.374.281h-.28v.094c.124 2.375.374 3.562.75 3.562l.187-.187v-.188c0-1.312-.219-2.406-.656-3.281zm-3.656 3l-.094.094v.562l.282.375h.094l.374-.375v-.562l-.28-.094h-.376zm7.969 8.813h-.281v.562c.25.813.531 1.219.844 1.219h.28v-.281c-.25-1-.53-1.5-.843-1.5zm-34.5.28l-.188.188v.094l.188.188h.469v-.188l-.282-.281h-.187zm31.594 1.22l-.281.28c.187.438.437.72.75.844h.093l.375-.374v-.188l-.469-.563h-.468zm-13.594 1.312v.188h.375c.875 0 2.031-.376 3.469-1.126v-.093h-.375c-2.125.25-3.281.594-3.469 1.031zm15.656.281l-.187.375v.188l.375.375h.375l.281-.188v-.187l-.469-.563h-.375zm-23.156.75l-.281.281c.125.313.375.47.75.47.687-.126 1.031-.282 1.031-.47v-.093l-.281-.188h-1.219zM59.406 68.47l-.281.375c.25.562 1.813 1.281 4.688 2.156.937.438 2.187.656 3.75.656v-.094c0-.187-1.188-.53-3.563-1.03-1.375-.376-2.813-1.063-4.313-2.063h-.28zM138.344.313l4.125-.094c2.562.5 3.843.875 3.843 1.125.126 0 .25.906.376 2.718.687.813 1.031 1.344 1.031 1.594-.313 3-.594 9.125-.844 18.375-.125 0-.187.313-.187.938-.5.312-.75.656-.75 1.031v1.5c0 1.25-.313 2.688-.938 4.313l-.094 1.312c0 .25.344.438 1.032.563v.656c-.938 7.937-1.407 13.125-1.407 15.562 0 2.875-.187 4.313-.562 4.313v.187c.375 0 .593.407.656 1.219l-.094.656v.375c0 1.188-.375 4.063-1.125 8.625v2.156c3.125.688 4.688 1.594 4.688 2.72l-.469.468v.844l.469.75c-.5 1.312-2.282 1.969-5.344 1.969h-.562l-.469-.75h-1.031l-2.532.562-3.562-.094c-.25 0-.532-1.594-.844-4.781l.188-3c-.813 0-2.094.688-3.844 2.063-5.188 2.874-9.75 4.437-13.688 4.687-3.625-.938-6.875-2.75-9.75-5.438-.937-.937-1.906-2.406-2.906-4.406-1.125-1.562-1.688-2.5-1.688-2.812v-.375h.282c.437.312 1.25 1.375 2.437 3.187l.469.094.094-.094v-1.218c0-1.25-.656-2.75-1.969-4.5h-.469c-.375 0-.594.562-.656 1.687h-.281l-.188-.469c.125-2.437.219-4.031.281-4.781h.563l.094.844h.187c.313-.125.469-.438.469-.938v-1.781l-.187-.281c-.188 0-.282.25-.282.75l-.562.562c-.125 0-.219-.218-.282-.656 0-4.688 1.532-9.688 4.594-15 1.438-2.5 2.875-4.5 4.313-6 2-1.813 5.156-2.719 9.469-2.719h.843c6.625 0 12.031 1.719 16.219 5.157l.656.374h.282c.562-2.75 1.124-9.718 1.687-20.906.313-.5.563-.75.75-.75-2-1.312-3.375-1.969-4.125-1.969-.562 0-.906-2.156-1.031-6.468.125-.125.625-.219 1.5-.281v-.376c-.063-.25-.313-.374-.75-.374-.313-.188-.469-.407-.469-.657 0-.625.719-.937 2.156-.937V.969l-.375-.375V.406l.563-.094zm.094 4.03l-.094.282v.094h1.125v-.094l-.281-.281h-.75zm5.25.938l-.188.282v.093h1.406v-.281l-.656-.094h-.562zm-2.907 1.782l.188.28c1.5-.062 2.25-.25 2.25-.562l-.375-.281h-1.125c-.438 0-.75.188-.938.563zm-2.437-.375l-.188.28v.188l.656.188c.376 0 .594-.125.657-.375l-.281-.282h-.844zm-20.813 24.28l-.281.376v.468l.281.188H118l.469-.375v-.281l-.375-.375h-.563zM123.062 32l.188.375h4.125V32c-.375-.375-1.406-.594-3.094-.656h-.937c-.188.062-.282.281-.282.656zm22.407-.188v-.468h.469v.468h-.469zm-34.313 2.063v.375l.188.094h.375c2.187-.563 3.281-1.219 3.281-1.969-.062-.25-.375-.375-.938-.375h-.468c-.938 0-1.75.625-2.438 1.875zm20.156-.938l-1.312.094h-.188v.282c1.5.624 2.469.937 2.907.937h.093c0-.625-.5-1.063-1.5-1.313zm9.094.47h-.375c0 .624.125.937.375.937l.094-.094v-.281l-.094-.563zm-19.781 1.687l-.187.187.187.094H121l.281-.188v-.093h-.656zm-13.594 6.562v.282h.281c.376-.126.782-.844 1.219-2.157 1.875-2.625 3.125-3.937 3.75-3.937l.375-.657h-.562c-.25 0-1.282.626-3.094 1.876-1.188 1.75-1.844 3.28-1.969 4.593zm10.5-5.906l-.187.281h.937l.281-.187v-.094h-1.031zm4.875.469l.188.093h.187l2.063-.28v-.188l-.656-.094c-1.188.063-1.782.219-1.782.469zm4.969-.469l-.187.281.281.282h.562l.188-.282c-.125-.187-.375-.281-.75-.281h-.094zm4.313.094h-.376l.376.375.187-.188-.187-.187zm2.062.562h-1.031c0 .25.906.625 2.719 1.125h.093v-.281c-.5-.563-1.093-.844-1.781-.844zm-26.156 18.282v1.406c0 .875 1.187 3.406 3.562 7.593a11.733 11.733 0 005.625 1.407c4.313 0 8.5-1.031 12.563-3.094 1.687-2.563 3.156-3.844 4.406-3.844.688-.687 1.438-3.031 2.25-7.031.5-1.125.75-2.281.75-3.469v-.937c0-2.625-.344-3.938-1.031-3.938-1.438-1.312-2.157-2.093-2.157-2.343l.376-.563c0-.25-.907-.625-2.719-1.125l-.563-.375.094-.188h1.406v-.093c0-.625-3.406-.969-10.218-1.032l-1.313-.28c-5 .5-7.5 1.156-7.5 1.968-2.313 2.75-3.813 6.125-4.5 10.125-.687 2.375-1.031 4.313-1.031 5.813zm27.375-14.813l-.375.375V41l.468.469h.282c.25-.063.375-.313.375-.75 0-.375-.188-.657-.563-.844h-.187zM106.094 50c0 .188.094.281.281.281.437 0 .75-.625.937-1.875v-.562h-.281c-.312 0-.625.718-.937 2.156zm29.812 14.156v.563c.375 0 .563.281.563.844h.187l.469-.47v-.75c-.25-.187-.375-.5-.375-.937h-.281c-.375.063-.563.313-.563.75zm-7.031.75v.375h.094a3.186 3.186 0 001.5-1.219v-.187l-.188-.188h-.187c-.438.188-.844.594-1.219 1.22zm-9.375 1.219v.281h1.125c4.125-.25 6.406-.844 6.844-1.781v-.281h-.281c-4.813.812-7.376 1.406-7.688 1.781zm21.469-1.406h-.094l-.094.75v1.219l.188.28h.187l.188-.28v-.938c0-.625-.125-.969-.375-1.031zm-33.188.844h-.375v.28c0 .376 1.032.657 3.094.844v-.28c-1.438-.563-2.344-.844-2.719-.844zm2.157 1.5l-.282.187c0 .688 1.844 1.375 5.532 2.063h.468l.188-.188v-.094c0-.687-1.782-1.344-5.344-1.969h-.562zm26.531.374l-.469.376V68h.281l.375-.375v-.188h-.187zm-14.625.75v.188l.281.188h.563c2-.126 3-.313 3-.563l-.282-.188h-1.781c-1.187 0-1.781.126-1.781.376zm19.781-.093h-.469v.281l.188.188h.468v-.188l-.187-.281zm-26.063 2.812v.281l.094.282h1.219c1 0 2.469-.219 4.406-.656v-.188l-2.719-.281c-2 .125-3 .312-3 .562zm27.563.188c.063.25.375.375.937.375h1.876l.656-.188v-.187c0-.188-.375-.344-1.125-.469-1.563.063-2.344.219-2.344.469zm20.531-66.281l3.188-.47c2.187 0 3.906 1.126 5.156 3.376l.656 3c-.125 1.187-.812 2.75-2.062 4.687-.813.813-2.063 1.219-3.75 1.219-3.938 0-6.375-.594-7.313-1.781-.937-1.25-1.375-3-1.312-5.25-.25 0-.375-.063-.375-.188V9.22c1.875-2.938 3.812-4.406 5.812-4.406zm-1.875 2.343v.094c2.125-.25 3.188-.531 3.188-.844l-.469-.187c-1.812.312-2.719.625-2.719.937zm1.594 2.719h.094l.562.094h.188c.687 0 1.125-.25 1.312-.75l-.093-.188h-1.126c-.5 0-.812.281-.937.844zm6.75-.844l-.281.469v.375h.094l.281-.375v-.469h-.094zm-2.25 3.094v.281h.375c.438 0 .781-.219 1.031-.656v-.281h-.187c-.438 0-.844.219-1.219.656zm-2.063 1.688l-.281.28v.188h1.688l.281-.187-.281-.281h-1.407zm-11.906 8.906h.282c.5.437 1.124.656 1.874.656l1.219-.563c8.5 0 12.75.25 12.75.75l.094.657v1.593c.563 1.25.844 2.438.844 3.563v1.5c-.75 10.188-1.25 18.438-1.5 24.75-.125.375-.25 1.031-.375 1.969.062.25.344.375.844.375h.281c3.375 0 5.062.406 5.062 1.218l-.093.188v.563c.75 1.5 1.124 3.874 1.124 7.124l.376 3.75-.282.188-4.125.188h-9.375c-7 0-10.5-.563-10.5-1.688 0-.688-.187-1.375-.562-2.063.187-.437.5-.78.937-1.03h.281c.25.25.532.374.844.374h.188c1.812 0 3.968-.156 6.468-.469v-.187c-5.374-.375-8.062-.813-8.062-1.313l-.094-.75v-1.03l-.187-2.438c0-.625 2.343-.938 7.031-.938.625 0 .938-1.406.938-4.218l1.124-24.657h-.187c-1.75 0-2.625-.125-2.625-.375 0-.062.094-.156.281-.281-3.75 0-5.625-.438-5.625-1.313-.25-.062-.375-.312-.375-.75l.469-1.125c0-.25-.188-.593-.562-1.03.5-.5.843-1.5 1.031-3l.187-.188zm1.5 1.875v.375h.469c1.625 0 2.437-.125 2.437-.375l-.187-.375h-.281c-1.625 0-2.438.125-2.438.375zm12.75-.657l-.281.282.375.281h.188v-.281l-.282-.282zm-10.687 1.97h-1.688v.28c0 .25.438.375 1.313.375h4.406c.938 0 1.406-.156 1.406-.468V26c0-.313-1.812-.344-5.437-.094zm8.343.093l-.843-.094v.188c.437 0 .969.312 1.593.937h.188c.125 0 .188-.093.188-.281h.187c.25 0 .406.281.469.844h.187l1.313-.938v-.562L167.125 26h-1.313zm-.374 5.25l.468 1.406-.656 1.688c.25.562.469.843.656.843H166l.188-.562v-.563c0-2.25.343-3.374 1.031-3.374l.281-.375v-.375l-.281-.282h-.563c-.812 0-1.218.532-1.218 1.594zm-2.907 8.906l-.281 12.094c.062.438.156.656.281.656.188 0 .313-.281.375-.843l-.094-1.407c.313-.312.657-1.562 1.032-3.75v-.562l-.188-1.313c.375-.312.563-.531.563-.656a6 6 0 01-.375-2.063v-.187c.25 0 .562-3.5.937-10.5-.187-.5-.375-.75-.562-.75-.938 0-1.5 3.094-1.688 9.281zm4.594-8.25l-.375.094v.563c0 .374.156.656.469.843h.281l.281-.375v-.468a1.13 1.13 0 00-.656-.657zm-.469 15.282h-.468c-.5 2.312-.75 4.03-.75 5.156h.093c.313 0 .719-1.282 1.219-3.844v-.656l-.094-.657zM164.875 56v.656h.187c.313-.125.469-.5.469-1.125v-.656h-.281c-.125 0-.25.375-.375 1.125zm.187 1.406l-.281.375v.469h.281l.376-.281v-.282l-.282-.28h-.094zm7.5 2.25l-.281.094c.375.313 1.063.5 2.063.563v-.282c0-.25-.406-.375-1.219-.375h-.563zm.376 3.938l-1.126.281c.126.75.688 1.125 1.688 1.125h.281v-.281l-.187-.281c0-.063.25-.25.75-.563v-.469c0-.437-.125-.687-.375-.75h-.375c-.188.063-.406.375-.656.938zm-17.907-.844l-.656.188v.093c.5.5 2.437.782 5.813.844h.656c.5 0 .812-.156.937-.469v-.187c-2.625-.313-4.875-.469-6.75-.469zm8.813 1.125l.375.469c.562 0 .843-.313.843-.938h-.468c-.375 0-.625.157-.75.469zm8.812 1.875l-.281.375v.188h.187l.282-.376v-.187h-.188zm-7.218.563l-1.219.093h-1.313v.375l1.313.094 2.719-.188v-.28h-.376l-1.124-.094zM175 69.5l-.375.281v.281h.563l.093-.28-.093-.282H175z" fill="#fff"/></svg>