<svg width="243" height="80" viewBox="0 0 243 80" fill="none" xmlns="http://www.w3.org/2000/svg">
<path d="M6.32812 4.1875H6.42188C8.54688 4.1875 10.2344 4.625 11.4844 5.5C12.5469 5.625 13.0781 5.8125 13.0781 6.0625V6.25C12.1406 6.25 11.6719 6.46875 11.6719 6.90625C11.8594 7.21875 12.4531 7.40625 13.4531 7.46875C13.5781 7.78125 14.0156 8.03125 14.7656 8.21875L17.2031 8.03125L18.1406 8.3125L25.3594 6.8125H25.7344C30.4219 8.0625 34.6406 10.125 38.3906 13C42.3281 16.9375 44.6094 19.9688 45.2344 22.0938C45.8594 24.2188 46.1719 25.6875 46.1719 26.5C45.2969 33.9375 44.5469 37.6562 43.9219 37.6562C41.6094 41.4062 40.2031 43.5312 39.7031 44.0312L38.8594 44.7812L39.1406 45.0625V45.1562C38.0156 46.5312 36.8594 47.4062 35.6719 47.7812C35.0469 48.1562 34.7031 48.7188 34.6406 49.4688C33.7656 50.3438 32.2969 50.7812 30.2344 50.7812C25.7344 52.3438 22.6406 53.125 20.9531 53.125C20.2656 53.125 18.9219 52.5938 16.9219 51.5312C15.1719 51.2188 13.6719 51.0625 12.4219 51.0625L11.8594 51.4375C12.2344 52.125 12.4219 53.7812 12.4219 56.4062V57.625L13.0781 61.9375L13.1719 68.5V69.4375C13.1719 71 13.7344 71.7812 14.8594 71.7812L15.5156 72.3438V72.4375C15.0781 72.4375 14.8594 72.6562 14.8594 73.0938C15.7969 73.9062 16.2656 75.0625 16.2656 76.5625L16.7344 78.3438C15.6719 78.6562 14.5469 78.8125 13.3594 78.8125L6.79688 78.3438C5.60938 79.2188 4.95312 79.6562 4.82812 79.6562C3.45312 79.2812 2.10938 77.75 0.796875 75.0625L0.703125 74.9688L0.796875 74.5C1.17188 74.375 1.35938 74.2812 1.35938 74.2188V74.125C0.921875 73.5 0.703125 73.0312 0.703125 72.7188L0.796875 72.3438H1.07812C1.20312 72.3438 1.26562 72.4688 1.26562 72.7188H1.35938H1.92188L2.10938 72.625V71.5C2.54688 70.875 3.20312 70.5625 4.07812 70.5625C4.32812 70.3125 4.45312 68.7812 4.45312 65.9688V59.3125C4.45312 57.8125 4.26562 54.9688 3.89062 50.7812V15.3438L3.79688 12.4375H1.35938L1.07812 12.0625L0.984375 6.90625C0.984375 5.34375 1.76562 4.5625 3.32812 4.5625C3.64062 4.4375 4.64062 4.3125 6.32812 4.1875ZM2.10938 5.96875C2.10938 6.34375 2.26562 6.625 2.57812 6.8125H3.04688C3.48438 6.8125 3.76562 6.625 3.89062 6.25V5.96875C3.76562 5.65625 3.48438 5.5 3.04688 5.5H2.85938C2.35938 5.5 2.10938 5.65625 2.10938 5.96875ZM12.2344 8.03125L12.0469 8.3125V8.59375L12.2344 8.875H12.4219L12.6094 8.59375V8.3125L12.4219 8.03125H12.2344ZM26.7656 8.03125H26.5781V8.40625C27.3281 8.71875 27.9531 8.875 28.4531 8.875H29.0156V8.78125C29.0156 8.46875 28.2656 8.21875 26.7656 8.03125ZM3.32812 8.21875L3.04688 8.40625V8.875C3.04688 9.375 3.29688 9.78125 3.79688 10.0938H3.98438L4.07812 9.4375V9.15625C4.07812 8.59375 3.98438 8.28125 3.79688 8.21875H3.32812ZM14.8594 9.34375L15.1406 9.4375H15.6094L15.8906 9.15625L15.7031 8.875H15.6094C15.1094 9 14.8594 9.15625 14.8594 9.34375ZM29.9531 9.34375V9.4375C30.5781 10.1875 31.4219 10.7188 32.4844 11.0312H32.7656C32.7656 10.2188 31.8281 9.65625 29.9531 9.34375ZM20.5781 10.2812C20.5781 10.5312 21.8594 10.8125 24.4219 11.125C24.4219 11.25 24.7031 11.3125 25.2656 11.3125H26.6719L27.0469 11.0312L26.7656 10.75H26.4844L25.3594 10.9375L24.8906 10.75V10.6562L25.2656 10.2812V9.8125L24.4219 9.71875H22.9219C21.4844 9.78125 20.7031 9.96875 20.5781 10.2812ZM5.76562 14.9688C5.76562 15.9062 5.95312 16.625 6.32812 17.125V17.3125L5.67188 19.0938L6.32812 20.5938C5.76562 25.6562 5.48438 29.5312 5.48438 32.2188V38.9688C5.48438 40.9062 5.60938 42.5312 5.85938 43.8438L5.48438 46.6562V47.5938L5.67188 55.6562L5.76562 55.8438H5.85938C6.48438 55.5938 6.79688 55.2188 6.79688 54.7188V54.5312L6.32812 53.6875C6.57812 53.6875 6.79688 51.0312 6.98438 45.7188L6.79688 39.25C7.10938 28.1875 7.26562 20.875 7.26562 17.3125V17.125C7.26562 13.5 6.98438 11.6875 6.42188 11.6875C5.98438 11.6875 5.76562 12.7812 5.76562 14.9688ZM34.6406 12.1562H34.3594V12.3438C34.4219 12.5938 34.6719 12.8125 35.1094 13L35.4844 12.9062V12.7188C35.2969 12.3438 35.0156 12.1562 34.6406 12.1562ZM21.6094 15.9062C21.6094 16.0938 22.0156 16.1875 22.8281 16.1875L23.4844 16.0938V15.9062L23.2031 15.3438L28.3594 14.6875L28.8281 14.4062L28.4531 13.8438H27.7031C23.6406 14.3438 21.6094 15.0312 21.6094 15.9062ZM38.4844 14.2188L38.3906 14.4062C38.9531 15.1562 39.4531 15.6875 39.8906 16H40.0781C40.0781 15.375 39.5469 14.7812 38.4844 14.2188ZM31.5469 14.6875H31.1719V14.7812L31.5469 15.1562H31.7344V14.9688L31.5469 14.6875ZM13.9219 15.3438L13.3594 15.9062V16.0938H13.7344L14.2031 15.625V15.3438H13.9219ZM29.1094 15.625H28.3594V15.7188C28.6094 16.1562 29.2969 16.375 30.4219 16.375H31.0781L31.3594 16.1875C31.1719 15.9375 30.4219 15.75 29.1094 15.625ZM8.95312 16.75V17.3125C9.20312 17.3125 9.39062 16.7812 9.51562 15.7188H9.32812C9.07812 15.7812 8.95312 16.125 8.95312 16.75ZM18.7969 16.1875H18.6094C18.6094 16.5625 17.9531 17.0938 16.6406 17.7812V17.9688H17.2031L17.2969 17.875L17.4844 17.9688V18.0625C14.7969 19.375 13.1719 20.5312 12.6094 21.5312C12.4219 21.5312 12.1719 27.3438 11.8594 38.9688L11.6719 40.375C11.6719 40.5625 13.0469 41.6875 15.7969 43.75L19.7344 45.5312C19.7969 45.9062 19.9531 46.0938 20.2031 46.0938H20.5781C22.4531 46.0938 24.5781 45.4062 26.9531 44.0312C27.7031 43.2812 29.0781 42.5625 31.0781 41.875C34.2656 39.375 35.8594 36.9375 35.8594 34.5625V33.0625L35.6719 31.8438V31.6562L36.4219 30.7188V30.4375C35.8594 30.1875 35.5781 29.4375 35.5781 28.1875C35.5781 26 34.9531 24.2188 33.7031 22.8438C33.0156 21.1562 31.9219 19.7812 30.4219 18.7188C29.9219 17.9062 28.2969 17.1875 25.5469 16.5625H24.7031L20.2969 16.9375H20.0156C19.5156 16.9375 19.1094 16.6875 18.7969 16.1875ZM40.8281 16.5625H40.5469V16.8438L40.8281 17.0312H40.9219V16.8438L40.8281 16.5625ZM33.1406 16.75L32.7656 17.0312V17.125C32.7656 17.875 33.4219 18.5312 34.7344 19.0938H35.0156V18.9062C35.0156 17.9688 34.3906 17.25 33.1406 16.75ZM9.14062 20.5938L8.85938 20.7812L8.67188 27.25L8.76562 27.8125H8.95312L9.14062 27.5312V20.5938ZM41.7656 21.1562L41.4844 21.25L42.2344 22.5625H42.6094V22.375C42.6094 21.9375 42.3281 21.5312 41.7656 21.1562ZM36.0469 21.25H35.5781V21.8125C35.5781 22.3125 36.0469 23.3438 36.9844 24.9062H37.1719V24.5312C37.1719 22.9688 36.7969 21.875 36.0469 21.25ZM37.5469 26.3125H37.0781V26.875L37.5469 26.9688L37.6406 26.7812L37.5469 26.3125ZM40.6406 37.4688H40.8281C42.0156 35.5312 42.6094 33.3438 42.6094 30.9062V29.5938H42.4219C41.8594 29.5938 41.2656 32.2188 40.6406 37.4688ZM38.2031 29.6875H38.0156V31L38.3906 31.375H38.4844L38.7656 31.0938C38.7656 30.5312 38.5781 30.0625 38.2031 29.6875ZM37.0781 34.75V34.8438H37.1719C37.9219 34.7812 38.2969 34.4688 38.2969 33.9062V33.0625L38.0156 32.9688H37.9219C37.3594 33.4062 37.0781 34 37.0781 34.75ZM33.7969 41.5938L33.8906 41.6875H34.0781C34.8281 41.25 35.2344 40.875 35.2969 40.5625L35.1094 40.4688C34.2969 40.8438 33.8594 41.2188 33.7969 41.5938ZM12.2344 41.9688H11.8594C11.9219 42.7188 12.2969 43.0938 12.9844 43.0938V42.8125L12.2344 41.9688ZM33.8906 44.7812V45.1562H34.0781C34.8906 44.9062 35.2969 44.5312 35.2969 44.0312H35.1094C34.4844 44.0312 34.0781 44.2812 33.8906 44.7812ZM22.8281 48.1562V48.25H23.2031C26.7031 47.5 28.4531 46.875 28.4531 46.375V46.1875C28.4531 46.0625 28.3281 46 28.0781 46C24.5781 46.9375 22.8281 47.6562 22.8281 48.1562ZM31.4531 47.7812H31.5469C32.7969 47.2812 33.5156 46.9062 33.7031 46.6562V46.5625L33.4219 46.375H33.3281C32.0781 46.875 31.4531 47.3438 31.4531 47.7812ZM12.5156 47.3125L12.4219 47.4062V47.5938C12.4219 48.2188 14.2656 48.7188 17.9531 49.0938L19.8281 48.1562V48.0625L19.5469 47.5938H18.9844L16.4531 48.1562C14.7656 47.5938 13.4531 47.3125 12.5156 47.3125ZM5.85938 58.5625V60.0625C5.85938 61.125 6.01562 61.6562 6.32812 61.6562C6.89062 60.5938 7.17188 59.375 7.17188 58V57.5312C7.17188 57.3438 6.98438 57.25 6.60938 57.25C6.10938 57.4375 5.85938 57.875 5.85938 58.5625ZM7.17188 64H6.79688L6.42188 64.375V65.5938C6.42188 66.1562 6.54688 66.7188 6.79688 67.2812H7.26562L7.45312 66.7188V65.5C7.45312 64.5 7.35938 64 7.17188 64ZM9.14062 73.2812L8.85938 73.5625V73.75L9.14062 74.125H9.51562L9.70312 73.8438V73.5625L9.32812 73.2812H9.14062ZM5.20312 73.5625H4.64062V73.75C4.70312 74 4.95312 74.125 5.39062 74.125L5.48438 73.8438L5.20312 73.5625ZM11.4844 73.5625L11.2031 73.8438V74.0312L11.4844 74.4062H11.9531L12.2344 74.125V73.8438L11.9531 73.5625H11.4844ZM3.14062 75.625L2.95312 75.9062V76C2.95312 76.125 3.39062 76.25 4.26562 76.375C5.26562 76.3125 5.76562 76.1875 5.76562 76V75.8125L4.92188 75.625H3.14062ZM73.5469 7.65625L76.1719 8.40625H77.0156C80.5781 10.1562 83.8906 12.25 86.9531 14.6875C90.1406 17.4375 91.7344 19.5 91.7344 20.875H91.5469C91.0469 20 90.5469 19.5625 90.0469 19.5625H89.9531C89.7656 19.5625 89.6719 19.6875 89.6719 19.9375C89.9219 20.625 90.4844 21.8125 91.3594 23.5H91.5469C91.6719 23.5 91.8281 23.1875 92.0156 22.5625H92.1094C92.2969 22.625 92.5156 23.5312 92.7656 25.2812L93.6094 27.1562L93.4219 28.375L93.7031 31.75C93.2656 33.3125 92.8594 35.375 92.4844 37.9375C92.2344 39.125 89.3281 43.5625 83.7656 51.25C81.2656 53.625 78.8281 54.8125 76.4531 54.8125C74.2656 55.0625 71.7969 55.1875 69.0469 55.1875H67.2656C66.2031 55.1875 63.4219 54.2812 58.9219 52.4688C53.2344 47.4062 50.3906 43.5312 50.3906 40.8438C49.5781 39.1562 48.8906 37.5938 48.3281 36.1562C48.3281 35.3438 49.1719 32.6562 50.8594 28.0938C50.8594 25.2188 51.5469 23.2188 52.9219 22.0938C55.8594 15.7812 59.5781 11.6875 64.0781 9.8125C68.0156 8.375 71.1719 7.65625 73.5469 7.65625ZM56.6719 37.0938V37.6562C57.5469 39.3438 58.5156 41.1562 59.5781 43.0938C59.5781 43.7188 60.7656 44.5938 63.1406 45.7188C64.2656 47.0312 66.3594 48.0625 69.4219 48.8125L71.1094 49C73.8594 48.4375 75.9219 47.8438 77.2969 47.2188L80.6719 44.4062C84.1719 40.6562 85.8594 37.5 85.7344 34.9375V34.0938C85.3594 33.0938 85.1719 31.4688 85.1719 29.2188C85.1719 27.4688 85.2969 26.0938 85.5469 25.0938C85.5469 24.6562 84.3281 23.5625 81.8906 21.8125C80.1406 19.3125 78.3281 17.7812 76.4531 17.2188H75.3281C68.0156 17.5312 64.3594 18.125 64.3594 19C62.7344 20.625 61.6094 22.2188 60.9844 23.7812C58.9844 25.9062 57.9844 27.3125 57.9844 28C57.4219 30.5625 56.9844 33.5938 56.6719 37.0938ZM59.5781 14.4062L59.2969 14.875V15.25C59.6719 15.25 61.5781 13.9375 65.0156 11.3125L65.7656 11.0312L66.3281 11.125C70.5156 10.6875 72.6094 10.2812 72.6094 9.90625V9.8125L71.1094 9.53125C66.8594 9.53125 63.0156 11.1562 59.5781 14.4062ZM66.8906 16.375V16.4688L67.0781 16.75H68.3906L75.0469 15.25V15.0625L73.2656 14.6875C69.0156 15.1875 66.8906 15.75 66.8906 16.375ZM52.1719 39.7188L51.7969 40V40.6562C51.9219 42.7812 52.5156 43.9688 53.5781 44.2188L53.6719 44.125V44.0312C53.2344 41.1562 52.7344 39.7188 52.1719 39.7188ZM66.7031 13.1875V13.6562C71.5781 13.0938 74.0156 12.7188 74.0156 12.5312L73.2656 12.25H73.1719C70.1719 12.25 68.0156 12.5625 66.7031 13.1875ZM74.6719 9.625C74.9844 10.5 75.6719 10.9375 76.7344 10.9375L77.6719 11.0312L77.8594 10.9375V10.4688C77.8594 9.78125 77.2031 9.375 75.8906 9.25C75.0781 9.3125 74.6719 9.4375 74.6719 9.625ZM57.6094 49.1875H56.9531V49.5625C57.7656 50.375 59.2344 50.7812 61.3594 50.7812H62.3906C62.0781 50.3438 60.4844 49.8125 57.6094 49.1875ZM73.0781 52.6562V52.8438C73.0781 53.0312 73.5469 53.1875 74.4844 53.3125C75.5469 53.3125 76.0781 53.1562 76.0781 52.8438V52.6562C76.0156 52.4062 75.7969 52.1562 75.4219 51.9062H74.5781C73.8906 51.9062 73.3906 52.1562 73.0781 52.6562ZM90.8906 34.8438C90.9531 36.7188 91.1094 37.7188 91.3594 37.8438H91.5469C91.5469 37.1562 91.8281 36.4062 92.3906 35.5938V35.3125L91.3594 33.9062H91.1719C91.0469 33.9062 90.9531 34.2188 90.8906 34.8438ZM84.7031 18.7188H84.3281C84.7031 19.5312 85.6094 20.2188 87.0469 20.7812H87.4219L87.7031 20.5V20.4062C86.6406 19.2812 85.6406 18.7188 84.7031 18.7188ZM82.6406 15.8125V16C82.8281 16.75 83.7031 17.5312 85.2656 18.3438H85.5469L85.7344 18.0625V17.9688C85.4219 17.5312 84.3906 16.8125 82.6406 15.8125ZM76.4531 12.7188L76.2656 12.8125C77.4531 13.75 78.3906 14.2188 79.0781 14.2188L79.1719 14.0312V13.9375C78.1719 13.125 77.2656 12.7188 76.4531 12.7188ZM63.9844 50.4062V50.6875C63.9844 51.0625 64.8594 51.25 66.6094 51.25L66.7031 51.1562V50.9688C65.8906 50.5938 64.9844 50.4062 63.9844 50.4062ZM81.2344 11.6875L80.9531 11.9688C81.6406 12.8438 82.3281 13.2812 83.0156 13.2812C83.0156 12.5938 82.4844 12.0625 81.4219 11.6875H81.2344ZM58.3594 21.3438V22H58.6406C59.4531 21.25 59.8594 20.6562 59.8594 20.2188V20.125H59.3906C59.0156 20.375 58.6719 20.7812 58.3594 21.3438ZM79.5469 17.0312C79.9219 17.6562 80.3594 17.9688 80.8594 17.9688L80.9531 17.7812V17.5938C80.9531 17.0312 80.7031 16.75 80.2031 16.75C79.7656 16.8125 79.5469 16.9062 79.5469 17.0312ZM88.6406 41.6875V41.7812C89.1406 41.7812 89.5781 41.2812 89.9531 40.2812V40.0938H89.6719C89.2969 40.0938 88.9531 40.625 88.6406 41.6875ZM60.3281 16.4688C60.8906 16.4688 61.4219 16.0938 61.9219 15.3438V15.0625C60.8594 15.375 60.3281 15.8438 60.3281 16.4688ZM90.1406 40H90.6094L90.9844 40.2812C91.0469 39.2812 90.8906 38.8438 90.5156 38.9688H90.3281L90.2344 38.3125L90.1406 40ZM78.1406 53.3125H78.2344C79.3594 52.9375 79.9219 52.625 79.9219 52.375L79.7344 52.1875C78.8594 52.5 78.3281 52.875 78.1406 53.3125ZM55.6406 45.9062L55.2656 46.0938V46.2812L56.0156 47.0312H56.3906C56.3906 46.5938 56.1406 46.2188 55.6406 45.9062ZM62.0156 51.7188V51.8125H63.2344L63.4219 51.625L63.2344 51.3438H63.0469C62.4219 51.3438 62.0781 51.4688 62.0156 51.7188ZM92.3906 28.1875L92.1094 28.4688V28.8438L92.3906 29.2188L92.7656 28.8438V28.4688L92.4844 28.1875H92.3906ZM52.7344 25.1875C53.0469 25.1875 53.3281 24.9688 53.5781 24.5312V24.3438C53.0156 24.3438 52.7344 24.625 52.7344 25.1875ZM49.8281 35.3125L49.6406 35.5938C49.7031 36.1562 49.7969 36.4375 49.9219 36.4375L50.1094 36.3438V35.875L49.9219 35.3125H49.8281ZM74.8594 13.6562V13.75L75.7969 13L75.6094 12.9062C74.9844 13.2812 74.7344 13.5312 74.8594 13.6562ZM54.6094 22H54.7031C54.9531 21.9375 55.0781 21.6875 55.0781 21.25H54.8906C54.7031 21.375 54.6094 21.625 54.6094 22ZM55.1719 33.25L54.7969 33.625V33.8125H55.0781L55.2656 33.5312V33.25H55.1719ZM60.7031 19.0938H60.3281V19.4688H60.5156L60.7031 19.2812V19.0938ZM120.797 7.65625L123.422 8.40625H124.266C127.828 10.1562 131.141 12.25 134.203 14.6875C137.391 17.4375 138.984 19.5 138.984 20.875H138.797C138.297 20 137.797 19.5625 137.297 19.5625H137.203C137.016 19.5625 136.922 19.6875 136.922 19.9375C137.172 20.625 137.734 21.8125 138.609 23.5H138.797C138.922 23.5 139.078 23.1875 139.266 22.5625H139.359C139.547 22.625 139.766 23.5312 140.016 25.2812L140.859 27.1562L140.672 28.375L140.953 31.75C140.516 33.3125 140.109 35.375 139.734 37.9375C139.484 39.125 136.578 43.5625 131.016 51.25C128.516 53.625 126.078 54.8125 123.703 54.8125C121.516 55.0625 119.047 55.1875 116.297 55.1875H114.516C113.453 55.1875 110.672 54.2812 106.172 52.4688C100.484 47.4062 97.6406 43.5312 97.6406 40.8438C96.8281 39.1562 96.1406 37.5938 95.5781 36.1562C95.5781 35.3438 96.4219 32.6562 98.1094 28.0938C98.1094 25.2188 98.7969 23.2188 100.172 22.0938C103.109 15.7812 106.828 11.6875 111.328 9.8125C115.266 8.375 118.422 7.65625 120.797 7.65625ZM103.922 37.0938V37.6562C104.797 39.3438 105.766 41.1562 106.828 43.0938C106.828 43.7188 108.016 44.5938 110.391 45.7188C111.516 47.0312 113.609 48.0625 116.672 48.8125L118.359 49C121.109 48.4375 123.172 47.8438 124.547 47.2188L127.922 44.4062C131.422 40.6562 133.109 37.5 132.984 34.9375V34.0938C132.609 33.0938 132.422 31.4688 132.422 29.2188C132.422 27.4688 132.547 26.0938 132.797 25.0938C132.797 24.6562 131.578 23.5625 129.141 21.8125C127.391 19.3125 125.578 17.7812 123.703 17.2188H122.578C115.266 17.5312 111.609 18.125 111.609 19C109.984 20.625 108.859 22.2188 108.234 23.7812C106.234 25.9062 105.234 27.3125 105.234 28C104.672 30.5625 104.234 33.5938 103.922 37.0938ZM106.828 14.4062L106.547 14.875V15.25C106.922 15.25 108.828 13.9375 112.266 11.3125L113.016 11.0312L113.578 11.125C117.766 10.6875 119.859 10.2812 119.859 9.90625V9.8125L118.359 9.53125C114.109 9.53125 110.266 11.1562 106.828 14.4062ZM114.141 16.375V16.4688L114.328 16.75H115.641L122.297 15.25V15.0625L120.516 14.6875C116.266 15.1875 114.141 15.75 114.141 16.375ZM99.4219 39.7188L99.0469 40V40.6562C99.1719 42.7812 99.7656 43.9688 100.828 44.2188L100.922 44.125V44.0312C100.484 41.1562 99.9844 39.7188 99.4219 39.7188ZM113.953 13.1875V13.6562C118.828 13.0938 121.266 12.7188 121.266 12.5312L120.516 12.25H120.422C117.422 12.25 115.266 12.5625 113.953 13.1875ZM121.922 9.625C122.234 10.5 122.922 10.9375 123.984 10.9375L124.922 11.0312L125.109 10.9375V10.4688C125.109 9.78125 124.453 9.375 123.141 9.25C122.328 9.3125 121.922 9.4375 121.922 9.625ZM104.859 49.1875H104.203V49.5625C105.016 50.375 106.484 50.7812 108.609 50.7812H109.641C109.328 50.3438 107.734 49.8125 104.859 49.1875ZM120.328 52.6562V52.8438C120.328 53.0312 120.797 53.1875 121.734 53.3125C122.797 53.3125 123.328 53.1562 123.328 52.8438V52.6562C123.266 52.4062 123.047 52.1562 122.672 51.9062H121.828C121.141 51.9062 120.641 52.1562 120.328 52.6562ZM138.141 34.8438C138.203 36.7188 138.359 37.7188 138.609 37.8438H138.797C138.797 37.1562 139.078 36.4062 139.641 35.5938V35.3125L138.609 33.9062H138.422C138.297 33.9062 138.203 34.2188 138.141 34.8438ZM131.953 18.7188H131.578C131.953 19.5312 132.859 20.2188 134.297 20.7812H134.672L134.953 20.5V20.4062C133.891 19.2812 132.891 18.7188 131.953 18.7188ZM129.891 15.8125V16C130.078 16.75 130.953 17.5312 132.516 18.3438H132.797L132.984 18.0625V17.9688C132.672 17.5312 131.641 16.8125 129.891 15.8125ZM123.703 12.7188L123.516 12.8125C124.703 13.75 125.641 14.2188 126.328 14.2188L126.422 14.0312V13.9375C125.422 13.125 124.516 12.7188 123.703 12.7188ZM111.234 50.4062V50.6875C111.234 51.0625 112.109 51.25 113.859 51.25L113.953 51.1562V50.9688C113.141 50.5938 112.234 50.4062 111.234 50.4062ZM128.484 11.6875L128.203 11.9688C128.891 12.8438 129.578 13.2812 130.266 13.2812C130.266 12.5938 129.734 12.0625 128.672 11.6875H128.484ZM105.609 21.3438V22H105.891C106.703 21.25 107.109 20.6562 107.109 20.2188V20.125H106.641C106.266 20.375 105.922 20.7812 105.609 21.3438ZM126.797 17.0312C127.172 17.6562 127.609 17.9688 128.109 17.9688L128.203 17.7812V17.5938C128.203 17.0312 127.953 16.75 127.453 16.75C127.016 16.8125 126.797 16.9062 126.797 17.0312ZM135.891 41.6875V41.7812C136.391 41.7812 136.828 41.2812 137.203 40.2812V40.0938H136.922C136.547 40.0938 136.203 40.625 135.891 41.6875ZM107.578 16.4688C108.141 16.4688 108.672 16.0938 109.172 15.3438V15.0625C108.109 15.375 107.578 15.8438 107.578 16.4688ZM137.391 40H137.859L138.234 40.2812C138.297 39.2812 138.141 38.8438 137.766 38.9688H137.578L137.484 38.3125L137.391 40ZM125.391 53.3125H125.484C126.609 52.9375 127.172 52.625 127.172 52.375L126.984 52.1875C126.109 52.5 125.578 52.875 125.391 53.3125ZM102.891 45.9062L102.516 46.0938V46.2812L103.266 47.0312H103.641C103.641 46.5938 103.391 46.2188 102.891 45.9062ZM109.266 51.7188V51.8125H110.484L110.672 51.625L110.484 51.3438H110.297C109.672 51.3438 109.328 51.4688 109.266 51.7188ZM139.641 28.1875L139.359 28.4688V28.8438L139.641 29.2188L140.016 28.8438V28.4688L139.734 28.1875H139.641ZM99.9844 25.1875C100.297 25.1875 100.578 24.9688 100.828 24.5312V24.3438C100.266 24.3438 99.9844 24.625 99.9844 25.1875ZM97.0781 35.3125L96.8906 35.5938C96.9531 36.1562 97.0469 36.4375 97.1719 36.4375L97.3594 36.3438V35.875L97.1719 35.3125H97.0781ZM122.109 13.6562V13.75L123.047 13L122.859 12.9062C122.234 13.2812 121.984 13.5312 122.109 13.6562ZM101.859 22H101.953C102.203 21.9375 102.328 21.6875 102.328 21.25H102.141C101.953 21.375 101.859 21.625 101.859 22ZM102.422 33.25L102.047 33.625V33.8125H102.328L102.516 33.5312V33.25H102.422ZM107.953 19.0938H107.578V19.4688H107.766L107.953 19.2812V19.0938ZM156.891 8.78125L159.516 8.59375C160.328 12.5312 160.297 14.5625 159.422 14.6875C158.609 14.6875 159.734 18.2812 162.797 25.4688C164.172 28.9062 165.266 31.4062 166.078 32.9688C167.891 37.4062 169.078 39.625 169.641 39.625C169.828 39.625 170.141 40 170.578 40.75L170.672 40.9375H171.703C172.391 40.9375 173.547 38.2188 175.172 32.7812C181.234 21.4062 182.953 15.6875 180.328 15.625C180.203 15.625 180.047 15.6562 179.859 15.7188C180.234 13.2188 180.328 11.0938 180.141 9.34375L180.609 8.96875C188.734 9.15625 192.797 9.46875 192.797 9.90625C193.109 9.90625 193.266 11.5 193.266 14.6875C192.828 16.5625 192.266 17.5 191.578 17.5C190.891 17.4375 190.516 17.4375 190.453 17.5C190.391 17.5625 190.547 17.6562 190.922 17.7812H190.266C187.828 21.9062 186.609 24.5938 186.609 25.8438C185.859 28.9062 184.891 31.0312 183.703 32.2188C181.766 37.8438 180.266 41.7188 179.203 43.8438C178.766 44.3438 178.328 45.9688 177.891 48.7188L173.859 55.2812C171.922 59.6562 169.266 63.8438 165.891 67.8438L161.297 70.9375C159.422 71.4375 157.953 71.6875 156.891 71.6875C152.266 71.6875 149.953 71.2188 149.953 70.2812C149.453 69.9688 149.047 69.0938 148.734 67.6562C147.797 66.7188 146.641 63.4375 145.266 57.8125V57.625C145.266 57 145.891 56.6875 147.141 56.6875C148.203 56.6875 150.078 56.125 152.766 55C153.578 55 154.703 57.875 156.141 63.625C156.578 64.9375 156.922 65.5938 157.172 65.5938H157.922C158.422 65.4062 158.922 64.6562 159.422 63.3438C159.797 63.3438 161.047 61.7188 163.172 58.4688C164.109 56.4688 165.109 54.625 166.172 52.9375L166.453 51.8125V49.9375C166.391 49 165.734 47.5938 164.484 45.7188C163.234 43.5938 162.234 41.5938 161.484 39.7188C158.547 31.8438 155.203 24.5312 151.453 17.7812C151.203 17.5312 150.922 17.4062 150.609 17.4062L144.891 17.6875L144.609 17.4062L144.422 14.3125L144.234 10.2812L145.922 9.53125L155.203 8.59375L156.891 8.78125ZM183.328 11.3125L182.203 11.0312L184.359 11.9688L185.672 11.6875H185.859L187.453 11.875V11.6875C187.453 11.4375 186.828 11.25 185.578 11.125H184.172C183.609 11.125 183.328 11.1875 183.328 11.3125ZM189.891 11.0312L189.703 11.2188V11.3125C189.828 11.5625 190.016 11.7188 190.266 11.7812L191.953 11.5938V11.3125C191.891 11.125 191.672 11.0312 191.297 11.0312H189.891ZM145.547 14.6875L145.359 14.7812V15.5312L145.828 15.9062H147.047C148.359 15.8438 149.016 15.6562 149.016 15.3438C149.016 15.0938 147.859 14.875 145.547 14.6875ZM154.172 15.7188L153.891 15.9062C153.891 16.6562 154.328 17.625 155.203 18.8125H155.297V17.7812C155.297 16.7188 155.016 16.0312 154.453 15.7188H154.172ZM188.578 14.3125V14.5L188.953 14.875C191.141 14.375 192.234 13.9688 192.234 13.6562L191.953 13.375H191.578C189.766 13.5625 188.766 13.875 188.578 14.3125ZM187.266 13.8438L186.984 14.0312V14.5C187.172 14.875 187.547 15.0625 188.109 15.0625L188.203 14.9688V14.5L187.547 13.8438H187.266ZM186.891 17.0312H186.422V17.5H186.891V17.0312ZM186.516 19.75H186.234C183.797 24.5 182.453 26.9688 182.203 27.1562V27.8125C182.203 28.0625 182.484 28.5 183.047 29.125L182.391 31H182.578C183.453 29.6875 184.703 26.4375 186.328 21.25L186.516 19.75ZM172.828 46.1875V46.6562H173.297C174.297 46.6562 175.578 43.6562 177.141 37.6562C177.141 37.5312 177.453 37.1875 178.078 36.625C178.078 36.125 178.266 35.7812 178.641 35.5938V35.5L178.359 34.75C178.672 34.125 178.672 34.0938 178.359 34.6562C178.234 34.9062 177.984 35.375 177.609 36.0625C176.672 37.75 175.828 39.2812 175.078 40.6562C174.828 41.5312 174.078 43.375 172.828 46.1875ZM162.703 32.0312H162.609V32.2188C163.922 35.8438 164.703 37.6562 164.953 37.6562H165.047V37.4688C163.859 33.8438 163.078 32.0312 162.703 32.0312ZM179.109 40.375H179.203C180.203 40.375 181.016 38 181.641 33.25H181.547C181.297 33.25 180.984 34.0312 180.609 35.5938C179.734 37.7188 179.234 39.3125 179.109 40.375ZM162.234 35.7812L161.953 36.0625V36.3438L162.234 36.5312L162.609 36.3438V36.25L162.234 35.7812ZM165.047 38.125L164.766 38.4062V38.5938L165.328 39.0625C165.516 39.0625 165.609 38.9688 165.609 38.7812C165.484 38.5312 165.328 38.3125 165.141 38.125H165.047ZM171.891 52.75V52.9375H172.359C172.797 52.9375 173.672 51.375 174.984 48.25V48.1562C174.109 48.1562 173.078 49.6875 171.891 52.75ZM168.328 49.8438V49.9375H168.422C168.922 49.9375 169.172 49.7188 169.172 49.2812V48.7188H168.797C168.484 48.8438 168.328 49.2188 168.328 49.8438ZM171.047 56.125L170.297 57.25L170.391 57.5312C170.953 57.0938 171.234 56.625 171.234 56.125H171.047ZM149.672 58L149.391 58.2812C149.891 58.9688 150.172 59.5938 150.234 60.1562L150.984 60.9062L151.359 60.8125V60.3438C151.359 59.4062 150.953 58.625 150.141 58H149.672ZM161.953 64V64.0938C162.578 64.0938 163.203 63.3125 163.828 61.75H163.641C162.891 62.125 162.328 62.875 161.953 64ZM151.547 62.5938H151.359V62.875C151.359 63.5625 151.609 64.0625 152.109 64.375L152.391 64.1875V64C152.391 63.5 152.109 63.0312 151.547 62.5938ZM164.203 65.9688L163.359 67.0938L163.547 67.2812H163.641C165.328 66.4062 166.328 65.5312 166.641 64.6562C166.391 64.4062 166.141 64.2812 165.891 64.2812H165.516C164.953 64.2812 164.516 64.8438 164.203 65.9688ZM154.078 66.1562H153.516V66.4375L153.891 66.9062H154.734L155.016 66.7188C155.016 66.4062 154.703 66.2188 154.078 66.1562ZM158.578 67.9375L160.266 69.1562H160.641C160.891 69.0938 161.016 68.8438 161.016 68.4062V67.9375C160.953 67.75 160.703 67.6562 160.266 67.6562H159.422C158.859 67.6562 158.578 67.75 158.578 67.9375ZM155.297 68.7812L155.203 69.0625C155.391 69.5 155.797 69.7188 156.422 69.7188H157.734L157.922 69.4375V69.3438C157.922 69.0312 157.547 68.8438 156.797 68.7812H155.297ZM206.484 1.1875L218.109 0.90625C219.109 0.90625 221.203 1.34375 224.391 2.21875C228.016 5.65625 230.172 8.34375 230.859 10.2812C232.234 11.7188 233.328 14.5625 234.141 18.8125C235.141 19.8125 235.641 22.0312 235.641 25.4688L235.734 27.8125L235.359 37.0938C235.359 38.9688 236.516 41.2812 238.828 44.0312C240.953 46.0938 242.328 47.125 242.953 47.125V47.3125C242.953 48.0625 241.859 49.25 239.672 50.875C238.047 52.5 237.016 53.3125 236.578 53.3125H236.484C235.484 53.1875 232.953 51.3438 228.891 47.7812C221.516 50.6562 217.797 52.125 217.734 52.1875C215.297 52.9375 212.578 53.3125 209.578 53.3125H209.109C205.734 52.75 202.859 51.4375 200.484 49.375C200.047 49 199.141 47.4375 197.766 44.6875C196.641 43.3125 196.078 41.625 196.078 39.625V36.9062C196.078 35.1562 196.547 33.5312 197.484 32.0312C198.297 29.4688 199.703 27.0312 201.703 24.7188C202.703 23.5312 203.703 22.7812 204.703 22.4688C207.953 20.7188 211.172 19.8438 214.359 19.8438L218.578 19.75H219.141C221.516 19.75 223.203 20.0938 224.203 20.7812H224.766C225.078 20.7812 225.234 20.6562 225.234 20.4062C224.547 17.4688 223.422 14.6562 221.859 11.9688C220.484 9.65625 217.922 8.5 214.172 8.5L210.328 7.9375C207.016 8.625 205.359 9.3125 205.359 10C204.047 11.6875 203.266 13.7812 203.016 16.2812C202.891 16.5938 201.766 16.75 199.641 16.75L199.078 16.9375C198.828 16.9375 198.516 17.4688 198.141 18.5312C196.391 18.2812 195.516 17.9062 195.516 17.4062C195.641 17.0312 195.859 14.7812 196.172 10.6562C197.172 7.78125 199.547 5.125 203.297 2.6875C205.047 1.6875 206.109 1.1875 206.484 1.1875ZM216.984 2.78125L216.797 3.0625L217.078 3.4375H217.641L217.734 3.25L217.453 2.78125H216.984ZM224.109 3.53125H223.922V3.71875C224.422 4.21875 224.859 4.46875 225.234 4.46875H225.328V4.28125C224.828 3.78125 224.422 3.53125 224.109 3.53125ZM209.109 4V4.28125C209.172 4.46875 209.484 4.5625 210.047 4.5625C210.609 4.5625 211.391 4.375 212.391 4V3.625H212.016C210.641 3.625 209.672 3.75 209.109 4ZM200.672 7V7.1875H200.766C201.328 7.1875 202.172 6.59375 203.297 5.40625V5.125H203.203C202.578 5.125 201.734 5.75 200.672 7ZM213.703 6.34375L213.234 6.71875L213.516 7.1875H214.734L215.016 6.90625L214.453 6.34375H213.703ZM199.922 13.9375L199.641 14.125V15.5312H199.734C199.984 15.4688 200.109 15.25 200.109 14.875V14.125L199.922 13.9375ZM233.953 21.4375H233.859V21.625C233.984 22.125 234.109 22.375 234.234 22.375L234.328 21.9062C234.203 21.5938 234.078 21.4375 233.953 21.4375ZM231.797 24.7188L231.516 24.9062V25.1875C231.766 26.125 232.016 26.5938 232.266 26.5938H232.453C232.453 25.7812 232.266 25.1562 231.891 24.7188H231.797ZM204.328 25.2812L203.297 25.75V26.2188H203.484C203.922 26.2188 204.234 25.9688 204.422 25.4688V25.2812H204.328ZM203.297 34.1875C203.734 37.9375 204.266 39.8125 204.891 39.8125L205.828 41.0312V41.125L204.984 41.0312V41.3125C206.172 42.9375 208.609 44.4375 212.297 45.8125C212.734 46.0625 213.359 46.25 214.172 46.375C215.297 46.375 219.609 44.5312 227.109 40.8438C227.609 40.5312 227.859 40.1875 227.859 39.8125V39.3438C227.297 36.7812 226.828 33.7812 226.453 30.3438L226.266 30.25C226.266 29.5625 225.578 29 224.203 28.5625C219.578 27.25 216.422 26.5938 214.734 26.5938C209.984 27.6562 206.734 29.25 204.984 31.375C203.859 32.5 203.297 33.4375 203.297 34.1875ZM231.516 28.0938L231.234 27.9062V28.1875H231.516V28.0938ZM231.891 29.875H231.328V30.25L231.609 30.5312L231.891 30.25V29.875ZM228.891 32.2188L228.609 32.5L228.891 32.875L229.266 32.7812V32.5L228.984 32.2188H228.891ZM232.266 32.5H231.984V32.5938C232.109 34.9688 232.359 36.1562 232.734 36.1562L232.922 35.9688V35.7812C232.922 34.4688 232.703 33.375 232.266 32.5ZM228.609 35.5L228.516 35.5938V36.1562L228.797 36.5312H228.891L229.266 36.1562V35.5938L228.984 35.5H228.609ZM236.578 44.3125H236.297V44.875C236.547 45.6875 236.828 46.0938 237.141 46.0938H237.422V45.8125C237.172 44.8125 236.891 44.3125 236.578 44.3125ZM202.078 44.5938L201.891 44.7812V44.875L202.078 45.0625H202.547V44.875L202.266 44.5938H202.078ZM233.672 45.8125L233.391 46.0938C233.578 46.5312 233.828 46.8125 234.141 46.9375H234.234L234.609 46.5625V46.375L234.141 45.8125H233.672ZM220.078 47.125V47.3125H220.453C221.328 47.3125 222.484 46.9375 223.922 46.1875V46.0938H223.547C221.422 46.3438 220.266 46.6875 220.078 47.125ZM235.734 47.4062L235.547 47.7812V47.9688L235.922 48.3438H236.297L236.578 48.1562V47.9688L236.109 47.4062H235.734ZM212.578 48.1562L212.297 48.4375C212.422 48.75 212.672 48.9062 213.047 48.9062C213.734 48.7812 214.078 48.625 214.078 48.4375V48.3438L213.797 48.1562H212.578ZM202.359 49.4688L202.078 49.8438C202.328 50.4062 203.891 51.125 206.766 52C207.703 52.4375 208.953 52.6562 210.516 52.6562V52.5625C210.516 52.375 209.328 52.0312 206.953 51.5312C205.578 51.1562 204.141 50.4688 202.641 49.4688H202.359Z" fill=""/>
</svg>
